<?xml version="1.0" encoding="UTF-8" standalone="no"?>
<!-- Created with Inkscape (http://www.inkscape.org/) -->
<svg xmlns:inkscape="http://www.inkscape.org/namespaces/inkscape" xmlns:rdf="http://www.w3.org/1999/02/22-rdf-syntax-ns#" xmlns="http://www.w3.org/2000/svg" xmlns:xlink="http://www.w3.org/1999/xlink" xmlns:ns1="http://sozi.baierouge.fr" xmlns:cc="http://creativecommons.org/ns#" xmlns:sodipodi="http://sodipodi.sourceforge.net/DTD/sodipodi-0.dtd" xmlns:dc="http://purl.org/dc/elements/1.1/" id="svg2" xml:space="preserve" viewBox="0 0 464.7 102.43" version="1.1" inkscape:version="0.91 r13725">
  <defs id="defs6">
    <linearGradient id="linearGradient26" y2="41.274" gradientUnits="userSpaceOnUse" x2="449.5" gradientTransform="matrix(.79888 .04296 .04296 -.79888 .012072 81.932)" y1="41.274" x1="2.9946">
      <stop id="stop28" style="stop-color:#e7e7e8" offset="0"/>
      <stop id="stop30" style="stop-color:#c3ced9" offset="1"/>
    </linearGradient>
    <linearGradient id="linearGradient44" y2="58.656" gradientUnits="userSpaceOnUse" x2="464.68" gradientTransform="matrix(.8 0 0 -.8 .012083 81.932)" y1="58.656" x1="-.0151">
      <stop id="stop46" style="stop-color:#cfd1d2" offset="0"/>
      <stop id="stop48" style="stop-color:#b5bfca" offset="1"/>
    </linearGradient>
    <clipPath id="clipPath66">
      <path id="path68" d="m358.61 70.011c0.922-0.176 1.922-0.871 3-2.078 0.481-0.535 0.879-1.414 1.199-2.641 0.188-0.668 0.454-1.613 0.801-2.84 0.641-1.812 1.797-4.176 3.481-7.082 1.89-3.305 3.133-5.613 3.718-6.918 1.442-3.254 1.239-7.133-0.601-11.64-0.508-1.2-0.906-2.641-1.199-4.321-0.028-0.211-0.227-1.691-0.602-4.437-0.078-0.563-0.133-1.774-0.156-3.641-0.027-1.519-0.16-2.707-0.402-3.562-0.825-2.825-3.52-5.641-8.079-8.438-1.519-0.933-3.761-2.402-6.722-4.402-2.664-1.625-5.133-2.692-7.399-3.199-3.949-0.852-8.8-1.305-14.558-1.36-6.59 0.133-11.496 0.199-14.723 0.199h-6.68c-2.558-0.078-4.707-0.347-6.437-0.8-1.922-0.641-3.363-1.012-4.32-1.118-2.082-0.242-4.961 0.266-8.641 1.52-2.719 0.078-4.773 0.117-6.16 0.117-2.375 0-4.387-0.144-6.039-0.437-0.535-0.11-1.282-0.309-2.242-0.602-1.012-0.32-1.758-0.531-2.239-0.641-1.652-0.347-3.883-0.464-6.679-0.359-3.094 0.16-5.336 0.254-6.723 0.281-6.238 0.055-14.227 0.426-23.957 1.121-5.227 0.426-9.203 0.707-11.922 0.84-0.852 0.106-1.785 0.117-2.801 0.039-0.133 0.028-0.426 0.172-0.879 0.442h0.52c-0.535 0.078-1.215 0-2.039-0.242-0.88-0.321-1.53-0.52-1.96-0.602-5.73-1.305-12.35-2.199-19.84-2.68-5.04-0.32-11.73-0.492-20.08-0.519l-11.359 0.043c-1.735-0.028-3.028-0.043-3.879-0.043-1.52-0.028-2.813 0.015-3.879 0.121-2.297 0.187-5.883 0.707-10.762 1.558-4.668 0.801-8.266 1.282-10.801 1.442-2.398 0.16-5.332 0.226-8.8 0.199-3.918-0.051-6.852-0.078-8.797-0.078h-38.723c-6.16 0-10.305 0.09-12.438 0.277-0.347 0.028-1.093 0.028-2.242 0-0.933 0-1.664 0.055-2.199 0.16-1.066 0.243-2.332 0.653-3.801 1.243-1.652 0.718-2.879 1.25-3.679 1.597-3.2 1.469-5.653 2.563-7.36 3.282-3.039 1.253-5.586 2-7.64 2.242-0.239 0.023-1.028 0.011-2.36-0.043-0.906-0.051-1.652 0.054-2.238 0.32-1.227 1.039-2.617 1.84-4.16 2.402-5.762 2.504-11.496 3.879-17.203 4.118-1.067 0-1.946 0.027-2.637 0.082-1.254 0.078-2.121 0.277-2.602 0.597-0.535 0.348-1.054 1.188-1.558 2.52-0.613 1.629-1.028 2.59-1.242 2.883-0.266 0.371-1.067 1.32-2.399 2.84-0.933 1.093-1.613 2.117-2.039 3.078-0.508 1.043-1.121 2.507-1.844 4.402-0.613 1.625-0.73 3.465-0.359 5.52 0.16 0.851 0.68 2.613 1.562 5.277 0.266 0.801 0.481 1.707 0.641 2.723 0.184 1.226 0.317 2.183 0.399 2.878 0.16 1.016 0.359 1.707 0.601 2.082 0.211 0.344 0.504 0.571 0.879 0.68-0.239-0.242-0.372-0.457-0.399-0.64-0.078-0.403 1.027-1.282 3.32-2.641 1.121-0.668 2.109-1.215 2.961-1.641 1.652-0.879 3.254-1.547 4.801-2 1.304-0.398 3.011-0.773 5.121-1.121 0.558-0.078 1.613-0.199 3.16-0.359 1.437-0.16 2.519-0.305 3.238-0.438 0.614-0.109 1.508-0.363 2.68-0.761 1.176-0.426 2.055-0.696 2.641-0.801 0.718-0.16 2.464-0.586 5.238-1.278 0.586-0.136 1.148-0.269 1.68-0.402 1.414-0.32 2.601-0.547 3.562-0.68 4.027-0.586 9.106-0.425 15.238 0.481 3.414 0.508 8.426 1.293 15.039 2.359 5.364 0.535 10.707 0.84 16.043 0.922 2.239 0.051 4.879-0.242 7.918-0.883 1.735-0.371 4.321-0.984 7.762-1.84l1.68-0.359c1.226-0.215 2.746-0.453 4.558-0.719l0.242-0.039c0.747-0.16 1.387-0.308 1.918-0.441 1.336-0.348 3.227-0.895 5.68-1.641 2.586-0.801 4.469-1.359 5.641-1.679 3.469-0.961 7.293-1.508 11.48-1.641 2.375-0.055 6.254 0.051 11.641 0.32 4.398 0.239 11.105 0.707 20.121 1.399 7.172 0.242 12.812 0.375 16.918 0.402 3.574 0.023 5.988-0.016 7.242-0.121 1.84-0.188 3.223-0.305 4.156-0.359 1.524-0.106 2.895-0.133 4.121-0.082 0.774 0.027 1.708 0.082 2.801 0.16 1.465 0.109 3.199 0.242 5.199 0.402 0.774 0.078 1.575 0.16 2.403 0.238 1.679 0.133 3.238 0.215 4.679 0.243h1.438l1.359-0.04c0.59-0.027 1.161-0.066 1.723-0.121 0.398-0.027 0.801-0.066 1.199-0.121 1.918-0.265 3.774-0.465 5.559-0.597l6.519-0.161h1.243l7.558 0.68c0.559 0.082 1.133 0.172 1.719 0.281 0.961 0.161 1.922 0.348 2.883 0.559 2.64 0.559 6.011 0.867 10.117 0.922 2.293 0.023 5.656 0.039 10.082 0.039h0.539c0.395 0 0.762 0.016 1.102 0.039l6.078 0.078h1.359c3.176-0.023 6.043-0.211 8.602-0.558 1.839-0.239 3.625-0.442 5.359-0.602 6.719-0.637 12.879-0.785 18.48-0.438 1.465 0.079 3.614 0.211 6.442 0.399l0.598 0.039c0.082 0.027 0.175 0.043 0.281 0.043 2.879 0.184 5.308 0.293 7.281 0.32h0.719c1.492-0.054 3.586-0.293 6.281-0.722 2.934-0.481 5.254-0.664 6.957-0.559h0.121c2.188 0.105 4.36 0.387 6.52 0.84v0.039c0.132 1.094-0.16 2.187-0.879 3.281-0.028 0.051-0.055 0.094-0.082 0.121-0.371 0.531-0.824 1.051-1.36 1.559-0.214 0.16-0.414 0.32-0.601 0.48-1.84 1.52-3.067 2.68-3.68 3.481-0.027 0.023-0.051 0.066-0.078 0.117-0.16 0.242-0.293 0.496-0.402 0.762-0.348 0.851-0.481 1.961-0.399 3.32 0.082 1.895 1.399 3.586 3.961 5.078 1.227 0.695 3.371 1.586 6.438 2.68 1.414 0.508 3.574 1.215 6.48 2.121 0.055 0.027 0.094 0.039 0.121 0.039 2.613 0.883 4.735 1.762 6.36 2.641h0.039c2.242 1.175 2.668 2.496 1.281 3.961-0.426 0.425-0.918 0.828-1.481 1.199-0.023 0-0.039 0.015-0.039 0.039h0.004z" inkscape:connector-curvature="0"/>
    </clipPath>
    <clipPath id="clipPath74">
      <path id="path76" d="m-0.015104 64.916h465v88.75h-465v-88.75z" inkscape:connector-curvature="0"/>
    </clipPath>
    <radialGradient id="radialGradient78" gradientUnits="userSpaceOnUse" cy="83.7" cx="140.15" r="328.2">
      <stop id="stop80" style="stop-color:#ffffff;stop-opacity:.35689" offset="0"/>
      <stop id="stop82" style="stop-color:#ffffff;stop-opacity:.71760" offset="1"/>
    </radialGradient>
    <mask id="mask84">
      <g id="g86">
        <g id="g88" clip-path="url(#clipPath74)">
          <path id="path90" style="fill:url(#radialGradient78)" d="m-0.015104 64.916h465v88.75h-465v-88.75z" inkscape:connector-curvature="0"/>
        </g>
      </g>
    </mask>
    <radialGradient id="radialGradient94" gradientUnits="userSpaceOnUse" cy="83.7" cx="140.15" r="328.2">
      <stop id="stop96" style="stop-color:#ffffff" offset="0"/>
      <stop id="stop98" style="stop-color:#93a3b1" offset="1"/>
    </radialGradient>
  </defs>
  <g id="g10" transform="matrix(1.25 0 0 -1.25 0 102.43)">
    <g id="g12">
      <path id="path14" style="fill-rule:evenodd;fill:#8d959e" d="m368.33 27.69-0.082-0.718c-0.586 0.879-1.09 2.187-1.52 3.918-0.371 1.414-0.597 2.629-0.679 3.64-0.051 0.828-0.067 1.856-0.039 3.082 0.027 1.387 0.039 2.426 0.039 3.121 0 1.864-0.172 3.411-0.52 4.637-0.398 1.442-1.133 2.801-2.199 4.082-0.105-0.613-0.148-1.402-0.121-2.359 0-0.535 0.027-1.336 0.082-2.403-2.559 3.817-4.281 7.84-5.16 12.083-0.242 1.171-0.16 2.8 0.238 4.878 0.242 1.254 0.402 2.305 0.481 3.161 2.242 1.171 2.668 2.492 1.281 3.961-0.426 0.425-0.918 0.828-1.481 1.199 0.641-0.16 1.293-0.535 1.961-1.121l0.961-0.918c0.481-0.535 0.879-1.414 1.199-2.641 0.188-0.668 0.454-1.613 0.801-2.84 0.637-1.812 1.797-4.176 3.481-7.082 1.89-3.305 3.133-5.613 3.718-6.918 1.438-3.254 1.239-7.133-0.601-11.64-0.508-1.2-0.906-2.641-1.199-4.321-0.028-0.211-0.227-1.691-0.602-4.437-0.027-0.11-0.039-0.231-0.039-0.364zm-165.72-14.597c-0.535-0.375-1.32-0.922-2.359-1.641-0.91-0.586-1.723-1.015-2.442-1.281-0.746-0.32-1.492-0.492-2.242-0.52-1.547-0.132-3 0.067-4.359 0.602-1.414 0.586-2.531 1.48-3.359 2.68l-0.442 0.757c0.375 0.188 0.895-0.023 1.563-0.64 0.906-0.824 1.414-1.266 1.519-1.317 0.481-0.269 1.117-0.468 1.918-0.601 0.481-0.109 1.16-0.215 2.043-0.32 2.211-0.321 4.879 0.652 8 2.921l1 0.758c0.774 0.586 1.277 1.227 1.52 1.918 0.132 0.321 0.226 0.684 0.277 1.082 0.242 1.094 0.48 1.84 0.723 2.242 0.851 1.223 1.425 2.172 1.718 2.84 0 1.653 0.012 2.907 0.039 3.758 0 1.469 0.04 2.68 0.122 3.641l0.199 1.558c0.16 0.508 0.226 0.84 0.199 1 0 0.188-0.199 0.563-0.598 1.121-0.562 0.829-1.226 1.602-2 2.321-0.722 0.64-1.59 1.199-2.601 1.679-0.188 0.082-0.36 0.161-0.52 0.239 1.465 0.109 3.199 0.242 5.199 0.402 0.215-0.613 0.84-1.625 1.879-3.039 0.883-1.176 1.293-2.242 1.243-3.203-0.028-0.797-0.082-2.051-0.161-3.758-0.105-1.492-0.32-2.734-0.64-3.719 0.027-0.375 0-0.789-0.078-1.242-0.11-0.558-0.375-1.238-0.801-2.039-0.563-1.094-0.895-1.773-1-2.039-0.613-1.496-1.309-2.656-2.082-3.48-0.664-0.75-1.746-1.59-3.238-2.52l-0.239-0.16zm139.36 29.437c-0.375 0.535-0.828 1.055-1.36 1.563-0.215 0.16-0.414 0.32-0.601 0.48l-4.16 4.36c-0.188 0.453-0.305 0.933-0.36 1.437-0.082 0.563-0.094 1.188-0.039 1.883 0.078 1.891 1.399 3.586 3.957 5.078 1.227 0.695 3.375 1.586 6.442 2.68 1.414 0.508 3.574 1.215 6.48 2.121-0.426-1.094-1.012-2.453-1.758-4.082-1.414-4.133-1.75-8-1-11.598 0.133-0.64 0.758-2.496 1.879-5.562 0.801-2.239 1.133-4.157 1-5.758-0.055-0.934-0.32-2.32-0.801-4.16-0.48-1.785-0.746-3.16-0.8-4.121-0.106-3.571 0.187-6.266 0.882-8.078 0.504-1.254 1.52-2.547 3.039-3.883 0.829-0.746 2.082-1.825 3.762-3.239-0.933-0.586-2.027-1.308-3.281-2.16l-1.359-0.918c-0.481-0.293-0.973-0.601-1.481-0.922-2.426-1.414-4.695-2.359-6.801-2.839-2.187-0.481-4.652-0.84-7.402-1.079l-1.399-0.082c-0.292 0-0.585-0.011-0.878-0.039-0.11 0-0.215-0.015-0.321-0.043l-4.558-0.117h-0.922c-1.281 0-2.653 0.012-4.121 0.039l0.043 0.039 1.238 2.481c0.266 0.773 0.48 1.347 0.641 1.722 0.132 0.426 0.304 0.786 0.519 1.079s0.469 0.535 0.758 0.718c0.055-0.347 0.055-1.199 0-2.558-0.051-1.094 0.066-1.895 0.363-2.399 1.547 1.36 2.68 2.383 3.399 3.078 0.613 0.586 1.027 1.161 1.238 1.719 0.16 0.508 0.242 1.254 0.242 2.242 0.051 1.52-0.176 2.828-0.68 3.918-0.585 1.36-1.535 2.227-2.839 2.602 0.105 0.266 0.304 0.519 0.597 0.758 0.641 0.453 1.11 0.8 1.403 1.043 0.558 0.425 0.906 0.851 1.039 1.277 0.132 0.375 0.148 0.922 0.039 1.641l0.64 1.281c0.481-0.801 0.813-2.012 1-3.641 0.243-2.078 0.403-3.293 0.481-3.64 0.133-0.504 0.535-1.106 1.199-1.797 0.641-0.696 1.027-1.297 1.16-1.801 0.16-0.641 0.055-1.281-0.32-1.922-0.504-0.851-0.785-1.398-0.84-1.641 1.867 0.696 3.227 1.27 4.082 1.723 1.465 0.824 2.359 1.973 2.68 3.438 0.242 1.148 0.265 2.629 0.082 4.441-0.293 2.055-0.496 3.531-0.602 4.441-0.133 1.227-0.16 2.758-0.082 4.598 0.11 2.426 0.16 3.934 0.16 4.52 0.028 0.961 0.043 1.695 0.043 2.203 0 0.879-0.043 1.613-0.121 2.199-0.051 0.32-0.265 0.945-0.64 1.879 0.132 1.094-0.161 2.187-0.879 3.281v0.039l-0.082 0.078zm10.558 3.481c1.469 0.027 2.332 0.496 2.602 1.402 0.078 0.266 0.117 1.41 0.117 3.438l0.801 12.402c0-1.734 0.066-4.336 0.199-7.801 0.137-3.469 0.203-6.082 0.203-7.84 0-1.468-0.148-3.586-0.441-6.359-0.614 0.133-1.387 0.824-2.321 2.078-0.961 1.281-1.347 2.176-1.16 2.68zm-27.24-10.559c1.387-0.801 2.078-2.601 2.078-5.402 0-0.559-0.051-1.211-0.16-1.957-1.223-0.215-1.984-0.215-2.277 0-0.215 0.16-0.442 0.586-0.68 1.277-0.348 0.988-0.52 1.496-0.52 1.52-0.347 0.8-0.546 1.761-0.601 2.883-0.055 1.304 0.172 2.238 0.679 2.8l0.801-0.8 0.68-0.321zm-36.801-32.16-2.48 0.039c-2.481 0-4.239-0.027-5.282-0.078 0.723 0.957 1.282 1.586 1.68 1.879 0.453 0.348 1.188 0.719 2.203 1.121 1.199 0.48 1.985 0.824 2.36 1.039 1.945 1.066 3.664 2.652 5.16 4.758 0.773 1.043 1.293 2.027 1.558 2.961 0.028 0.082 0.121 0.574 0.282 1.48 0.105 0.586 0.265 1.055 0.48 1.399l0.281 0.8c0-2.851-0.093-4.984-0.281-6.398-0.16-1.336-0.265-2.133-0.32-2.402-0.188-0.957-0.492-1.692-0.922-2.2-0.316-0.347-1.051-0.972-2.199-1.878-0.957-0.696-1.758-1.493-2.399-2.403l-0.121-0.117zm22.801 0.359h-1.16c-1.867-0.054-3.481-0.187-4.84-0.398 0.16 0.211 0.305 0.48 0.441 0.797 0.133 0.215 0.293 0.734 0.477 1.562 0.055 0.239 0.176 0.559 0.363 0.957 0.211 0.43 0.348 0.735 0.399 0.922 0.054 0.215 0.093 0.532 0.121 0.961 0.027 0.426 0.066 0.746 0.117 0.957 0.293 1.043 0.492 1.828 0.601 2.36 0 0.75 0.079 1.281 0.239 1.601 0.109 0.188 0.32 0.469 0.64 0.84 0.293 0.375 0.508 0.695 0.641 0.961-0.746-0.266-1.293-0.453-1.641-0.563-0.64-0.183-1.265-0.226-1.879-0.117l0.161 0.239c0.16 0.214 0.386 0.402 0.679 0.562l0.481 0.32c0.504 0.399 1 1.055 1.48 1.961 0.293 0.559 0.52 1.172 0.68 1.84 0.184 0.824 0.332 1.481 0.441 1.957 0.637-0.398 1.157-2 1.559-4.797 0.184-1.656 0-3.336-0.559-5.043-0.347-0.933-0.468-1.879-0.363-2.84 0.055-0.398 0.27-1.386 0.641-2.957 0.187-0.589 0.281-1.281 0.281-2.082zm-41.96-2.359c-0.746 0-1.559 0.012-2.441 0.039-1.227 0.055-2.321 0.109-3.282 0.16 0.403 0.266 0.641 0.442 0.723 0.52 0.559 0.558 1.012 1.441 1.359 2.64 0.079 0.293 0.106 1.305 0.079 3.039-0.024 1.442 0.132 2.333 0.48 2.68 0.293-0.347 0.652-1.144 1.082-2.398 0.934-2.426 1.602-4.653 2-6.68zm-33.238 34.441-0.043 0.04 1.801 0.078 3 0.203c-0.508-0.11-0.868-0.43-1.079-0.961-0.136-0.293-0.296-0.774-0.48-1.442l-1.84-4.718c-0.055 1.519-0.109 2.668-0.16 3.441-0.055 1.383-0.402 2.449-1.043 3.199l-0.16 0.16h0.004zm-16.32-31.761c-0.828-0.266-1.496-0.465-2-0.602l-0.32-0.117c-0.133 0-0.242-0.016-0.32-0.043-2.453-0.559-5.055-1.039-7.801-1.437 0.242 0.746 0.828 1.531 1.762 2.359 1.094 0.824 1.851 1.426 2.277 1.801 0.883 0.746 1.496 1.597 1.84 2.558 0.32 0.852 0.469 1.907 0.441 3.16 0 2.106-0.492 4.508-1.48 7.2-0.348 0.933-0.531 2.093-0.559 3.48 0.028 1.176 0.039 2.133 0.039 2.879 0.11-1.57 0.922-3.465 2.442-5.68 1.734-2.558 2.531-4.625 2.398-6.199-0.027-0.375-0.172-1-0.437-1.879-0.243-0.801-0.375-1.414-0.403-1.84-0.027-0.613 0.16-1.242 0.559-1.882 0.668-1.04 1.016-1.598 1.043-1.68 0.266-0.586 0.437-1.277 0.519-2.078zm-89.56-0.641-16.84-0.078c1.199 1.598 2.094 2.52 2.68 2.758 0.508 0.215 0.988 0.242 1.441 0.082 0.879-0.32 1.348-0.481 1.399-0.481 0.535-0.109 1.093-0.132 1.679-0.082 0.75 0.055 1.254 0.215 1.524 0.481 0.851 0.773 0.863 2.265 0.039 4.48-1.121 3.039-1.68 4.586-1.68 4.641-0.242 3.039-0.348 5.121-0.32 6.238 0.48-1.945 0.972-3.48 1.48-4.597 0.184-0.403 0.387-1.188 0.598-2.36 0.215-1.015 0.48-1.773 0.801-2.281v1.121l0.16-0.32c0.133-0.375 0.32-0.774 0.558-1.2 0.403-0.75 0.922-1.535 1.563-2.363 0.133-0.133 0.773-0.879 1.918-2.238 0.293-0.375 0.762-1.016 1.402-1.922 0.586-0.797 1.117-1.426 1.598-1.879zm-20.719-0.078h-20.68c2.481 0.746 4.161 1.559 5.04 2.437 0.558 0.536 0.773 1.149 0.64 1.84-0.054 0.403-0.32 1.028-0.801 1.883-0.187 0.32-0.586 0.891-1.199 1.719-0.535 0.719-0.906 1.293-1.121 1.719-0.293 0.535-0.453 1.172-0.48 1.922-0.051 1.304-0.079 1.984-0.079 2.039-2.214 0.187-3.8 0.199-4.761 0.039-0.321-0.051-0.985-0.321-2-0.801-0.719-0.344-1.344-0.465-1.879-0.36 0.586 0.508 1.027 0.895 1.32 1.161 0.426 0.375 0.653 0.773 0.68 1.199 0.746 0.109 1.933 0.226 3.558 0.359 1.524 0.137 2.696 0.27 3.524 0.403 0.316 0.933 0.504 2.238 0.558 3.918 0.079 2.054 0.172 3.402 0.282 4.043-0.028-0.774 0.133-1.762 0.476-2.961 0.481-1.707 0.75-2.696 0.801-2.961 0.106-0.586 0.188-1.387 0.242-2.399 0.024-1.148 0.067-1.933 0.117-2.359 1.204-0.403 2.082-0.082 2.641 0.957 0.481 1.359 0.817 2.32 1 2.883 0.266 0.8 1.055 2.117 2.359 3.957 1.149 1.601 1.801 3 1.961 4.203 0.161 1.277 0.227 2.691 0.2 4.238-0.051 1.707-0.227 3.082-0.52 4.121-0.211 0.774-0.734 1.801-1.559 3.078l-1.242 2.36c2.696 0 4.707-0.09 6.043-0.278 1.199-0.16 2.387-0.48 3.559-0.961 1.332-0.558 2.371-1.226 3.121-2l0.277-0.441-0.398-1.398c-0.852-2.961-1.094-6.028-0.719-9.2 0.106-0.773 0.387-1.972 0.84-3.601 0.453-1.547 0.719-2.746 0.801-3.602 0.023-0.293 0-0.84-0.082-1.636-0.055-0.723-0.039-1.27 0.039-1.641 0.082-0.426 0.269-1 0.562-1.723 0.344-0.797 0.559-1.359 0.641-1.679-1.844 1.441-3 2.613-3.481 3.519-0.269 0.481-0.414 1.066-0.441 1.762-0.027 1.121-0.055 1.734-0.078 1.84-0.055 1.492-0.188 2.586-0.402 3.281-0.348 1.226-1.145 1.734-2.399 1.519-0.695-0.132-1.176-0.453-1.441-0.961-0.16-0.292-0.348-0.906-0.559-1.839-0.109-0.453-0.508-1.879-1.199-4.282-0.508-1.679-0.774-3.132-0.801-4.359 0-0.508-0.015-1.305-0.043-2.398 0.028-0.961 0.149-1.723 0.363-2.282 0.372-0.961 1.332-2.039 2.879-3.242 2.481-1.941 3.758-2.957 3.84-3.035z" inkscape:connector-curvature="0"/>
      <g id="g16">
        <g id="g18">
          <g id="g24">
            <path id="path32" style="fill-rule:evenodd;fill:url(#linearGradient26)" d="m358.85 64.812h-0.04c-1.624-0.879-3.746-1.762-6.359-2.641-0.027 0-0.066-0.012-0.121-0.039-2.906-0.906-5.066-1.613-6.48-2.121-3.067-1.094-5.215-1.985-6.442-2.68-2.558-1.492-3.879-3.187-3.957-5.078-0.055-0.695-0.043-1.32 0.039-1.883-1.414 0.137-3.082-0.133-5-0.797-1.894-0.64-4.094-1.707-6.601-3.203-1.438-0.851-3.52-2.16-6.239-3.918-2.265-1.734-4.039-2.867-5.32-3.402 0.641 0.027 1.254 0.055 1.84 0.082-2.824-0.188-4.973-0.32-6.438-0.399-5.601-0.347-11.761-0.203-18.48 0.438 0.586 0.852 1 1.508 1.238 1.961l0.68 1.16c0.266 0.426 0.562 0.746 0.883 0.961 0.664 0.211 1.144 0.426 1.437 0.637 1.094 0.773 0.762 1.215-1 1.32-2.078-0.078-3.254-0.117-3.519-0.117h-9.641c-1.625 0.023-3.172-0.309-4.641-1-0.023 0-1.414-0.801-4.156-2.403-1.07-0.64-2.32-1.132-3.762-1.48h-0.562c-4.426 0-7.785-0.012-10.078-0.039-4.106-0.055-7.481-0.359-10.121-0.918-0.957-0.215-1.918-0.402-2.879-0.563 0.558 2.348 0.586 4.95 0.078 7.801-0.238 1.52-0.371 2.309-0.399 2.36-0.238 0.668-0.8 0.906-1.679 0.722-0.856-0.187-1.828-0.574-2.922-1.16-0.613-0.32-1.531-0.828-2.758-1.523-1.492-0.797-3.265-1.571-5.32-2.317-0.399-0.136-2.211-0.75-5.442-1.84-1.703-0.562-5.386-1.882-11.039-3.96 0.907 0.027 1.774 0.027 2.602 0h-1.442c-1.441-0.028-3-0.106-4.679-0.243-0.828-0.078-1.629-0.16-2.399-0.238-2-0.16-3.734-0.293-5.203-0.402-1.093-0.078-2.027-0.133-2.797-0.157-1.23-0.054-2.601-0.027-4.121 0.079-0.933 0.054-2.32 0.171-4.16 0.359-1.254 0.109-3.668 0.148-7.242 0.121-4.106-0.027-9.746-0.16-16.918-0.402-9.016-0.692-15.719-1.157-20.121-1.399-5.387-0.265-9.266-0.375-11.641-0.32-4.183 0.133-8.011 0.68-11.476 1.641-1.176 0.32-3.055 0.878-5.641 1.679-2.453 0.75-4.348 1.293-5.68 1.641-0.48 0.133-1.054 0.266-1.722 0.402h0.043c0.504 0.156 0.957 0.383 1.359 0.68 0.774 0.613 1.211 1.453 1.32 2.519 0.078 0.934-0.093 1.852-0.523 2.758-0.586 1.227-0.785 2.293-0.598 3.199 0.106 0.618 0.375 1.161 0.801 1.641 0.078 0.082 0.277 0.215 0.598 0.402 0.242 0.133 0.386 0.332 0.441 0.598-1.574 0.215-3.762 0.375-6.558 0.481-3.067 0.105-5.27 0.226-6.602 0.359-1.84 0.187-3.055 0.297-3.641 0.32-1.414 0.028-2.64-0.093-3.679-0.359-1.813-0.531-4.161-1.426-7.039-2.68-3.387-1.492-5.696-2.453-6.922-2.879-0.907-0.347-2.387-0.629-4.438-0.84-0.883-0.109-1.883-0.335-3-0.679-1.254-0.453-2.215-0.774-2.883-0.961-1.863-0.559-3.824-1.254-5.879-2.082-0.8-0.371-1.425-0.547-1.878-0.52l-0.956-0.801c5.734 0.989 9.613 1.59 11.64 1.801-6.613-1.066-11.625-1.851-15.039-2.359-6.136-0.906-11.215-1.067-15.242-0.481-0.961 0.133-2.144 0.36-3.559 0.68-0.535 0.137-1.093 0.27-1.679 0.402-2.774 0.692-4.52 1.118-5.242 1.278-0.586 0.109-1.465 0.375-2.641 0.801-1.172 0.402-2.066 0.652-2.68 0.761-0.719 0.133-1.797 0.278-3.238 0.438-1.547 0.16-2.602 0.281-3.16 0.363-2.106 0.344-3.813 0.719-5.121 1.117-1.547 0.453-3.145 1.121-4.801 2-0.852 0.426-1.84 0.973-2.957 1.641-2.293 1.359-3.402 2.242-3.32 2.641 0.027 0.187 0.16 0.398 0.398 0.64 0.188 0.211 0.426 0.438 0.723 0.68 0.933 0.773 1.41 1.172 1.437 1.199 0.403 0.453 1.016 0.988 1.84 1.602 0.906 0.691 1.535 1.211 1.879 1.558 1.894 2.16 3.414 3.719 4.562 4.68 1.438 1.226 2.614 2.133 3.52 2.719 1.281 0.828 2.613 1.429 4 1.8 0.934 0.266 2.266 0.641 4 1.122 1.519 0.425 2.84 0.894 3.961 1.398 0.801 0.348 2.051 1.066 3.758 2.16 1.547 1.043 2.8 1.734 3.761 2.082 0.504 0.188 1.239 0.387 2.2 0.598 1.039 0.215 1.761 0.387 2.16 0.523 2.055 0.664 4.039 1.465 5.961 2.399 0.906 0.425 2.066 0.746 3.48 0.961 0.824 0.132 2.039 0.277 3.637 0.437 1.148 0.188 2.574 0.32 4.281 0.402 0.961 0.024 2.387 0.079 4.281 0.157 1.707 0.082 4.293 0.254 7.758 0.523 3.016 0.16 5.602 0.145 7.762-0.043 3.918-0.371 8.051-0.558 12.398-0.558 2.055 0 6.536-0.094 13.442-0.282 1.894-0.05 4.32-0.211 7.281-0.48-0.32-0.266-0.629-0.625-0.922-1.078-0.293-0.426-0.465-0.785-0.519-1.082 0.828-0.399 2.199-0.571 4.121-0.52 1.066 0.028 2.437 0.11 4.117 0.242 4.16 0 8.309 0.239 12.441 0.719h0.082c0.266-0.027 0.532-0.039 0.797-0.039 5.657-0.187 12.907 0.106 21.762 0.879 12.746 1.094 19.984 1.68 21.719 1.762 0.242 0 2.414 0.144 6.519 0.437 0.242 0.028 0.481 0.043 0.723 0.043l-0.52-0.32c-0.269-0.215-0.589-0.629-0.961-1.242-0.347-0.586-0.668-0.985-0.961-1.2-0.265-0.214-0.667-0.414-1.199-0.601-0.586-0.211-1.015-0.371-1.281-0.477-0.824-0.32-1.801-0.617-2.918-0.883-1.309-0.292-2.309-0.519-3-0.679-1.519-0.348-3.254-0.934-5.203-1.758-0.106-0.055-1.773-0.828-5-2.32-0.637-0.293-1.785-0.789-3.438-1.481 0.051 0 0.122-0.015 0.2-0.039-0.078-0.348-0.332-0.723-0.762-1.121-0.238-0.215-0.598-0.519-1.078-0.922-0.801-0.769-1.801-2.051-3-3.84-0.613-0.773-1.668-1.746-3.16-2.918-1.547-1.254-2.614-2.214-3.2-2.879 0.586 0.024 1.493 0.36 2.719 1 2.879 1.09 5.946 1.719 9.199 1.879 2.536 0.106 5.961-0.027 10.282-0.402 4.988-0.426 8.414-0.652 10.281-0.68 0.746 0 1.906-0.011 3.48-0.039 1.36 0.082 2.465 0.387 3.321 0.922 0.879 0.531 1.879 1.293 3 2.277 1.679 1.469 2.613 2.282 2.797 2.442 0.8 0.641 1.882 1.305 3.242 2 1.574 0.773 2.718 1.359 3.441 1.758 0.692 0.375 1.559 0.988 2.598 1.843 1.172 0.985 2.027 1.653 2.558 2 3.282 1.973 5.723 3.504 7.321 4.598h0.679c2.668-0.055 6.375 0.067 11.121 0.359 4.747 0.266 10.961 0.723 18.641 1.36 9.652 0.801 15.867 1.297 18.641 1.48 5.652 0.375 9.961 0.496 12.918 0.36l0.121-0.278c-0.856-0.242-1.067-0.656-0.641-1.242l0.801-0.277c-0.082-0.774-0.332-1.387-0.762-1.84-0.371-0.402-0.918-0.773-1.64-1.121-0.399-0.215-1-0.508-1.797-0.879-1.574-0.883-2.59-1.402-3.043-1.563-0.692-0.265-1.653-0.414-2.879-0.437-1.813-0.027-2.813-0.055-3-0.082-0.879-0.078-2.039-0.254-3.481-0.52-1.734-0.293-2.894-0.48-3.48-0.558-0.106-0.028-1.121-0.094-3.039-0.203-1.309-0.078-2.293-0.25-2.961-0.52 1.359-0.265 3.215-0.359 5.559-0.277 1.308 0.023 3.203 0.094 5.683 0.199h5.68c1.387 0 2.453 0.066 3.199 0.199 1.012 0.16 2 0.52 2.961 1.082 1.227 0.719 2.371 1.278 3.437 1.68 0.43 0.16 1.149 0.32 2.161 0.48 0.933 0.133 1.64 0.317 2.121 0.559 0.265 0.133 0.691 0.32 1.281 0.559 0.504 0.214 0.879 0.453 1.117 0.722 0.453 0.477 0.652 1.106 0.602 1.879h0.238c1.707-0.082 3.414-0.039 5.121 0.121 0.691 0.078 1.387 0.239 2.082 0.477 2.481-0.133 5.266-0.16 8.359-0.078 3.333 0.293 5.239 0.453 5.719 0.48 2.16 0.133 4.012 0.149 5.559 0.039 0.402-0.027 1.066-0.133 2-0.32 0.801-0.16 1.453-0.254 1.961-0.281 0.558-0.024 1.519-0.039 2.879-0.039 1.226 0.027 2.187 0 2.882-0.078 0.934-0.106 1.891-0.321 2.879-0.641 0.266-0.082 0.629-0.199 1.082-0.359-0.375 0.105-0.683 0.199-0.921 0.277-0.934 0.32-1.801 0.535-2.598 0.64-0.43-0.48-0.43-1.48 0-3 0.211-0.8 0.492-1.707 0.84-2.718 0.16-1.387-0.11-2.746-0.801-4.082-0.293-0.559-0.773-1.184-1.441-1.879-0.454-0.481-0.961-1.16-1.52-2.039-0.691-1.067-1.172-1.774-1.441-2.121 0.507 0.027 1.297 0.175 2.363 0.441 1.172 0.293 1.984 0.465 2.437 0.52 1.121 0.105 2.762 0.144 4.922 0.121 2.211-0.028 3.852 0 4.918 0.078 1.867 0.187 3.856 0.722 5.961 1.601 0.453 0.188 1.067 0.414 1.84 0.68 0.586 0.266 0.988 0.691 1.199 1.281 0.242 0.614 0.321 1.2 0.242 1.758-0.082 0.508-0.242 0.945-0.48 1.32-0.402 0.454-0.75 0.856-1.043 1.2l-2.117 2.441-0.602 0.16c1.867-0.426 3.574-0.762 5.121-1 4.371-0.64 8.278-1.308 11.719-2 2.238-0.508 3.801-0.906 4.68-1.199 0.961-0.348 1.812-0.762 2.558-1.242 0-0.028 0.016-0.039 0.043-0.039 0.559-0.371 1.051-0.774 1.481-1.199 1.387-1.469 0.957-2.79-1.281-3.961zm-18.84-20.239c0.187-0.16 0.386-0.32 0.601-0.48 0.532-0.508 0.985-1.028 1.36-1.563 0.027-0.027 0.054-0.066 0.078-0.117 0.722-1.094 1.015-2.187 0.883-3.281v-0.039c-2.161-0.453-4.336-0.735-6.52-0.84h-0.121c-1.707-0.109-4.027 0.078-6.961 0.559-2.691 0.425-4.785 0.668-6.277 0.718 0.773 0 1.625-0.05 2.558-0.16l7.559 6.199c1.121 0.774 2.148 1.641 3.082 2.602 0.023-0.055 0.051-0.094 0.078-0.121 0.617-0.797 1.84-1.957 3.68-3.477zm-65.481 37.278c0.242 0 0.469-0.012 0.68-0.039h-0.16l-0.52 0.039zm32.762-40.278c-0.508 0.426-1.293 0.453-2.359 0.078-1.043-0.398-1.668-0.894-1.883-1.48-0.239-0.613-0.199-1.148 0.121-1.598 0.961 0 2.398 0.051 4.32 0.16 0.399 1.438 0.332 2.383-0.199 2.84zm-118.28 40c1.894-0.082 4.027-0.336 6.398-0.761 0.086-0.028 0.172-0.055 0.262-0.079-2.047 0.375-3.774 0.618-5.18 0.719l-1.48 0.121z" inkscape:connector-curvature="0"/>
          </g>
        </g>
      </g>
      <g id="g34">
        <g id="g36">
          <g id="g42">
            <path id="path50" style="fill-rule:evenodd;fill:url(#linearGradient44)" d="m358.61 70.011c0.641-0.133 1.305-0.52 2-1.16-0.668 0.586-1.32 0.961-1.961 1.121-0.027 0-0.039 0.011-0.039 0.039zm5.039-54.801c-0.586 0.375-0.988 0.656-1.199 0.844-0.828 0.769-1.535 1.719-2.121 2.84-0.187 0.398-0.668 1.519-1.441 3.359-1.278 3.039-2.051 6.691-2.317 10.957-0.082 1.148-0.121 4.867-0.121 11.16 0.051-2.719 0.973-5.387 2.758-8 1.066-1.547 3.066-3.773 6-6.68 1.414-1.414 2.414-2.718 3-3.917l0.043 1.199 0.078 0.718c-0.051-0.667-0.094-1.757-0.117-3.281-0.027-1.519-0.16-2.703-0.403-3.558-0.558-1.895-1.949-3.774-4.16-5.641zm-9.761-6.637c-0.293-0.187-0.586-0.375-0.879-0.562-0.215-0.133-0.414-0.254-0.602-0.36 0.508 0.321 1 0.629 1.481 0.922zm-17.08-4.922c-0.402-0.027-0.8-0.054-1.199-0.082 0.106 0.028 0.211 0.043 0.321 0.043 0.293 0.028 0.586 0.039 0.878 0.039zm-298.04 38.68c0.504-0.266 1.2-0.613 2.079-1.039 0.695-0.293 1.16-0.547 1.402-0.762 0.316-0.32 0.476-0.773 0.476-1.359 0.055-1.438-0.011-2.414-0.199-2.918-0.238-0.695-0.664-1.574-1.277-2.641-0.723-1.281-1.188-2.16-1.402-2.64-0.586-1.282-0.973-2.949-1.161-5-0.105-0.879-0.187-2.641-0.238-5.282l0.399 1.043c-0.028-1.121 0.027-2.761 0.16-4.921 0-0.668-0.012-1.094-0.039-1.282-0.082-0.371-0.254-0.746-0.52-1.117-0.773-1.121-1.242-1.894-1.402-2.32 0.429-0.082 1.043-0.094 1.84-0.043 0.828 0.055 1.468 0.055 1.921 0-0.292 0.027-1.066 0.015-2.32-0.039-0.906-0.055-1.652 0.054-2.238 0.32-1.227 1.039-2.617 1.84-4.16 2.399-5.762 2.507-11.496 3.882-17.203 4.121-1.067 0-1.946 0.027-2.637 0.082-1.254 0.078-2.121 0.277-2.602 0.597-0.535 0.348-1.054 1.188-1.558 2.52-0.617 1.629-1.028 2.586-1.242 2.883-0.266 0.371-1.067 1.316-2.399 2.84-0.933 1.093-1.613 2.117-2.043 3.078-0.504 1.039-1.117 2.507-1.84 4.402-0.613 1.625-0.73 3.465-0.359 5.52 0.16 0.851 0.68 2.613 1.562 5.277 0.266 0.801 0.481 1.707 0.637 2.723 0.188 1.226 0.32 2.183 0.402 2.878 0.161 1.012 0.36 1.707 0.598 2.079 0.215 0.347 0.524 0.574 0.922 0.679-0.238-0.238-0.375-0.453-0.398-0.636-0.082-0.403 1.023-1.282 3.32-2.641 1.117-0.668 2.105-1.215 2.957-1.641 1.656-0.879 3.254-1.547 4.801-2 1.308-0.402 3.015-0.773 5.121-1.121 0.558-0.078 1.613-0.199 3.16-0.359 1.437-0.16 2.519-0.305 3.238-0.442 0.614-0.105 1.508-0.359 2.68-0.757 1.176-0.426 2.055-0.696 2.641-0.801 0.718-0.16 2.468-0.586 5.242-1.281 0.586-0.133 1.144-0.266 1.679-0.399zm230.76-41.039c-0.054 1.117-0.187 2.801-0.398 5.039-0.028 0.188-0.016 0.625 0.039 1.32 0 0.559-0.039 1.016-0.121 1.36-0.531 1.148-0.84 2.066-0.918 2.762-0.082 0.613-0.199 1.25-0.36 1.917 0 2.106 0.106 3.973 0.321 5.602 0.16 1.332 0.547 2.52 1.16 3.559 0.449 0.746 1.25 1.718 2.398 2.918 1.227 1.203 2.801 2.32 4.719 3.363 1.254 0.664 2.149 0.918 2.68 0.758 0.695-0.239 1.148-0.946 1.359-2.121 0.11-0.637 0.188-1.52 0.242-2.637 0.481-0.188 0.961 0.09 1.442 0.84 0.48 0.906 0.785 1.48 0.918 1.718 0.453 0.879 0.718 1.801 0.8 2.758-0.027 0.723-0.039 1.254-0.039 1.602-0.027 0.668 0.067 1.199 0.278 1.601l-1.039 0.52c0.718 0.691 1.293 1.144 1.718 1.359 0.668 0.348 1.469 0.52 2.403 0.52 0.211 0 1.344 0.012 3.398 0.039 1.387 0.027 2.52-0.012 3.403-0.121 0.453-0.051 1.211-0.09 2.277-0.117 0.988-0.055 1.75-0.188 2.281-0.403 0.961-0.398 1.613-0.957 1.961-1.679 0.32-0.586 0.453-1.426 0.399-2.52 0-0.211-0.067-0.625-0.2-1.238-0.105-0.508-0.132-0.883-0.082-1.121 0-0.133 0.043-0.282 0.121-0.442-0.851-0.664-1.332-1.332-1.441-2-0.133-0.879-0.172-2.039-0.117-3.48 0.027-0.774 0.066-1.93 0.117-3.481 0-2.906-0.105-5.039-0.316-6.398-0.403-2.375-1.243-4.309-2.524-5.801 0.293-0.051 0.735 0.149 1.32 0.602 0.641 0.508 1.055 0.84 1.243 1 1.066 0.691 1.73 1.199 2 1.519 0.425 0.508 0.613 1.426 0.558 2.758-0.078 1.707-0.105 2.668-0.078 2.883 0.184 0.105 0.625 0.078 1.317-0.082 0.75-0.16 1.269-0.215 1.562-0.16 0.801 0.16 1.371 0.547 1.719 1.16 0.32 0.851 0.574 1.535 0.758 2.039 0.617 1.601 0.761 3.801 0.441 6.601-0.398 3.629-0.574 5.856-0.52 6.68l-0.878-0.64c0.05 0.617 0.558 1.414 1.519 2.402 0.852 0.851 1.531 1.398 2.039 1.64 1.387 0.614 2.852 1.067 4.399 1.36 1.015 0.187 1.855 0.293 2.523 0.32 0.344 0 1.277-0.015 2.797-0.043 1.121 0 2.043 0.028 2.762 0.082 1.386 0.16 2.386 0.239 3 0.239 0.531-0.028 1.558-0.051 3.078-0.079 1.336-0.132 2.269-0.468 2.801-1 0.375-0.375 0.574-1 0.601-1.882 0-0.481-0.039-1.172-0.121-2.079v-4c0-1.839 0.027-3.015 0.082-3.519 0.133-0.934 0.199-1.469 0.199-1.602l-0.121-0.64-0.16 0.121c-0.105-0.133-0.465-0.508-1.078-1.121-0.481-0.614-0.547-1.094-0.199-1.438 0.453-0.453 0.906-0.32 1.359 0.399 0.879-0.106 1.773 0.574 2.68 2.039l1.32 2.84-0.68-1.559-0.64-1.281c0.105-0.719 0.09-1.266-0.043-1.641-0.133-0.426-0.481-0.851-1.039-1.277-0.293-0.242-0.758-0.586-1.399-1.043-1.043-0.586-1.695-1.278-1.961-2.078-0.187-0.508-0.293-1.575-0.32-3.2 0-1.972-0.266-3.574-0.801-4.8-0.211-0.293-0.387-0.653-0.519-1.082-0.266-0.532-0.614-1.321-1.039-2.36-0.371-0.801-0.801-1.414-1.282-1.84-3.918 0.082-7.011 0.122-9.277 0.122h-4.762c-0.398 1.039-0.508 2.585-0.32 4.64 0.293 2.133 0.469 3.492 0.52 4.078 0.242 2.082 0.332 3.828 0.281 5.242-0.028 0.852-0.242 1.747-0.641 2.68-0.558 1.067-0.972 1.918-1.238 2.559-0.668 1.492-1.242 2.988-1.723 4.48-0.183 0.613-0.293 1.442-0.316 2.481-0.028 1.226-0.082 2.066-0.16 2.519-0.375-0.558-0.535-1.508-0.481-2.84 0.028-0.746 0.078-1.773 0.16-3.082 0-0.586 0.118-1.25 0.36-2 0.265-0.929 0.426-1.586 0.48-1.957 0.293-2.508-0.215-4.761-1.519-6.761l-0.321-0.399c-0.293-0.16-0.519-0.348-0.679-0.558-0.321-0.188-0.762-0.282-1.321-0.282-0.988-0.027-1.562-0.054-1.718-0.082 0.078-1.414-0.481-3.051-1.684-4.918-1.25-1.949-2.586-3.093-4-3.441-0.773-0.188-1.52-0.121-2.238 0.199-0.828 0.348-1.121 0.934-0.879 1.762 0.051 0.133 0.226 0.293 0.519 0.48 0.371 0.266 0.571 0.414 0.598 0.438 0.559 0.64 0.934 1.121 1.121 1.441 0.266 0.481 0.438 1.055 0.52 1.719 0.293 2.055 0.32 4.109 0.078 6.16-0.266 2.32-0.824 4.27-1.68 5.84-0.531 0.961-1.359 2.066-2.48 3.32-1.278 1.387-2.227 2.414-2.84 3.082-0.985 1.145-1.746 1.973-2.281 2.481-0.106 0.105-0.637 0.492-1.598 1.16-0.508 0.371-0.883 0.73-1.121 1.078 0.402-0.746 0.949-1.773 1.64-3.078 0.719-1.336 1.243-2.52 1.559-3.563 0.453-1.414 0.684-3.32 0.684-5.718 0-2.481-0.11-4.282-0.321-5.399-0.375-1.922-1.16-3.48-2.359-4.679-1.203-1.227-3.027-2.563-5.481-4-0.429-0.27-1.269-0.668-2.519-1.204-1.094-0.507-1.817-1.023-2.16-1.558-0.27-0.399-0.481-1.016-0.641-1.84-0.082-0.48-0.199-1.16-0.359-2.039 0.078 0.023 0.16 0.039 0.238 0.039-0.719-0.215-1.281-0.359-1.68-0.441-1.093-0.235-2.437-0.368-4.039-0.395zm57.84 28.758c0 2.801-0.691 4.601-2.078 5.402l-0.961 1.399c-1.016-0.028-1.773-0.078-2.281-0.161-0.906-0.132-1.465-0.546-1.68-1.238-0.082-0.242-0.109-0.574-0.082-1 0.027-0.215 0.055-0.547 0.082-1-0.027-0.746-0.133-1.855-0.32-3.32-0.028-1.949-0.039-2.988-0.039-3.121 0.16-1.145 0.718-1.891 1.679-2.238 0.829-0.348 1.719-0.426 2.68-0.243 1.016 0.215 1.785 0.668 2.32 1.36 0.696 0.855 0.918 2.242 0.68 4.16zm1.242-11.36c-1.015 0.083-1.949-0.226-2.801-0.917-0.828-0.668-1.386-1.493-1.679-2.481-0.242-0.695-0.375-1.402-0.403-2.121-0.027-0.984 0.204-1.613 0.68-1.879 0.348-0.242 0.895-0.293 1.641-0.16 0.722 0.133 1.226 0.348 1.519 0.641 0.535 0.507 0.907 1.437 1.121 2.8 0.161 1.492 0.309 2.52 0.442 3.078l-0.52 1.039zm-88.16 17.641c2.934 0.535 4.945 0.785 6.039 0.762 1.172 0 2.946 0.039 5.32 0.117 2.348 0.109 4.122 0.16 5.321 0.16 3.332 0 8.265 0.094 14.801 0.281 0.796 0 1.343-0.039 1.636-0.121 0.403-0.132 0.817-0.437 1.242-0.918 0.376-0.425 0.575-0.652 0.598-0.679 0.188-0.16 0.469-0.321 0.844-0.481 0.398-0.187 1.012-0.336 1.84-0.441 0.957-0.133 1.597-0.254 1.918-0.36l-1.758-0.199c-1.977-0.109-3.254-0.281-3.844-0.519-0.637-0.293-1.476-1.043-2.519-2.243-0.399-0.48-0.957-1.304-1.68-2.48-0.691-1.145-1.277-1.973-1.758-2.48-0.641-0.641-1.043-1.184-1.199-1.641-0.27-0.797-0.387-1.891-0.363-3.277 0-0.801 0.043-1.934 0.121-3.403v-0.277c0-0.481 0.039-1.309 0.121-2.481 0-0.507-0.055-0.921-0.16-1.242-0.243-0.691-0.801-1.519-1.68-2.48-1.066-1.149-1.723-1.906-1.961-2.281-0.215-0.344-0.398-0.958-0.559-1.84-0.136-0.852-0.32-1.426-0.562-1.719-0.453-0.586-1.172-0.934-2.16-1.039-1.172 0.027-2.012 0.039-2.52 0.039-0.078 0-1.531-0.121-4.359-0.359-1.813-0.133-3.266-0.04-4.36 0.281-0.8 0.238-1.601 0.746-2.398 1.519-1.226 1.118-1.922 1.746-2.082 1.879-0.32 0.242-0.84 0.547-1.559 0.922-0.718 0.399-1.242 0.707-1.562 0.918 0-0.586 0.187-1.559 0.562-2.918 0.372-1.226 0.52-2.226 0.438-3-0.02-0.535-0.08-0.883-0.15-1.043-0.06-0.16-0.25-0.426-0.57-0.801l-0.08-0.117c-1.68 0.106-3.414 0.227-5.203 0.36-5.223 0.425-9.199 0.707-11.918 0.839-0.852 0.106-1.785 0.121-2.801 0.039-0.078 0.028-0.215 0.082-0.398 0.161l0.078 0.082c1.308 1.011 2.094 1.746 2.363 2.199 0.426 0.64 0.371 1.668-0.16 3.082-1.336 3.332-2.441 5.891-3.32 7.68l-0.2 0.558c0.372-0.558 0.707-0.918 1-1.082 0.079 0.43 0.012 1-0.203 1.723-0.347 1.117-0.519 1.691-0.519 1.719-0.211 1.039-0.332 2.281-0.36 3.718 0 0.215 0.016 1.481 0.043 3.801 0 0.508-0.082 0.988-0.242 1.441-0.051 0.161-0.254 0.614-0.601 1.36-0.532 1.012-0.918 1.758-1.157 2.238-0.402 0.801-0.628 1.574-0.683 2.32-0.106 1.012 0 2.188 0.32 3.52 0.242-0.375 0.895-0.598 1.961-0.68 0.559-0.054 1.309-0.093 2.238-0.121 3.203-0.558 5.989-0.984 8.364-1.277 2.05-0.297 4.078-0.402 6.078-0.32l0.16-0.161c-0.508-0.054-1.641-0.082-3.399-0.082l0.797-0.519c0.028-0.481 0.336-1.067 0.922-1.758 0.641-0.801 1.012-1.359 1.117-1.68 0.137-0.347 0.188-0.843 0.161-1.48 0-0.027-0.04-0.535-0.118-1.52-0.16-1.922-0.242-3.855-0.242-5.8 0.028-1.254 0.453-2.508 1.281-3.762 1.016-1.52 1.668-2.559 1.961-3.117-0.718 1.625-1.16 3.386-1.32 5.277-0.187 2.027-0.027 3.91 0.481 5.641 0.238 0.906 0.757 1.695 1.558 2.359 0.453 0.375 1.281 0.895 2.481 1.562l1.601 0.797c0.266 0.161 0.547 0.403 0.84 0.723 0.348 0.371 0.598 0.625 0.758 0.758 0.59 0.48 1.359 0.707 2.32 0.68 0.906-0.028 1.68-0.266 2.32-0.719 0.266 0.801 0.454 1.426 0.559 1.879 0.188 0.8 0.215 1.468 0.082 2-1.176 0.16-2.559 0.16-4.16 0-1.813-0.239-3.176-0.41-4.082-0.52-0.266-0.023-0.84-0.008-1.719 0.043zm-37.84-23.238c-0.613-0.988-1.386-1.707-2.32-2.16-0.559-0.266-1.387-0.52-2.481-0.762 0.719 0.269 1.532 0.695 2.442 1.281 1.039 0.719 1.824 1.266 2.359 1.641zm33.438 22.68 1.922 0.16-0.121-0.082-1.801-0.078zm-18.438 2.96c0.586-0.027 1.16-0.066 1.719-0.121l-1.879-0.441c0.051 0.187 0.106 0.375 0.16 0.562zm-3.32-8.203c0.348-0.718 0.852-1.492 1.519-2.32-0.718 0.723-1.175 1.336-1.359 1.844l-0.16 0.476zm-9.039-13.039-0.281-0.359c-0.375-0.559-0.883-1.442-1.52-2.641l-1-0.758c-3.121-2.269-5.789-3.242-8-2.921-0.883 0.105-1.562 0.214-2.043 0.32-0.797 0.133-1.437 0.332-1.918 0.601-0.105 0.051-0.613 0.493-1.519 1.317-0.668 0.617-1.188 0.828-1.559 0.64l0.438-0.757-0.2 0.199c-0.238 0.238-0.652 0.746-1.238 1.519-0.508 0.692-0.949 1.2-1.32 1.52-0.16 0.133-0.574 0.414-1.242 0.84-0.504 0.347-0.879 0.679-1.118 1 0.321-0.531 0.985-1.371 2-2.52 0.879-0.984 1.493-1.867 1.84-2.64 0.586-1.227 1.09-2.133 1.52-2.719 0.558-0.719 1.344-1.387 2.359-2 1.172-0.692 2.293-1.082 3.359-1.16 1.04-0.082 2.172 0.148 3.399 0.679 1.492 0.668 2.508 1.055 3.043 1.161 1.383 0.347 2.266 0.093 2.637-0.758 0.453-1.071-0.024-2.043-1.438-2.922-0.719-0.453-1.84-0.918-3.359-1.399-3.76-1.253-8.28-2.054-13.56-2.402-0.53-0.023-3.32-0.332-8.36-0.918-3.68 0.531-6.399 1.188-8.16 1.961-1.387 0.613-2.282 1.426-2.68 2.438-0.293 0.722-0.453 1.972-0.48 3.761 0 0.934-0.028 1.547-0.079 1.84-0.136 0.613-0.441 1.16-0.921 1.641-0.293 0.293-0.786 0.504-1.481 0.64-0.746 0.133-1.254 0.332-1.519 0.598-0.266 0.266-0.465 0.762-0.598 1.481-0.055 0.242-0.137 0.851-0.242 1.839l0.359-1c-0.16 3.227-0.32 5.43-0.48 6.602-0.024 0.133-0.106 1.039-0.239 2.719-0.105 1.121-0.293 2-0.558 2.64-0.43 0.985-0.735 1.719-0.922 2.2-0.348 0.882-0.602 1.652-0.762 2.32l-0.398 2c0.828 0.64 2.64 1.226 5.441 1.762 0.824 0.156 1.852 0.238 3.078 0.238 0.668 0 1.68-0.012 3.039-0.039 1.387 0 3.43-0.094 6.121-0.281 2.719-0.188 4.762-0.282 6.121-0.282 0.426 0 1.508 0.082 3.239 0.242 1.336 0.133 2.414 0.133 3.242 0 0.559-0.109 1.359-0.359 2.398-0.761 0.321-0.078 0.907-0.16 1.762-0.239 0.774-0.082 1.348-0.199 1.719-0.359l0.441-0.242c-1.679-0.238-2.988-0.758-3.922-1.559-0.453-0.375-0.984-1-1.597-1.883-0.133-0.156-0.481-0.449-1.043-0.878-0.426-0.321-0.731-0.641-0.918-0.961-0.695-1.145-1.067-2.68-1.121-4.598-0.024-1.094 0.015-2.746 0.121-4.961 0 2 0.265 3.492 0.801 4.481 0.371 0.695 1.265 1.917 2.679 3.679 1.094 1.36 2.094 2.254 3 2.68 0.215 0.109 0.641 0.187 1.282 0.242 0.21 0.051 0.972 0.414 2.277 1.078 0.723 0.348 1.16 0.563 1.32 0.641 0.508 0.187 0.988 0.254 1.442 0.203l-0.52 0.316c0.078 0.536-0.133 0.95-0.641 1.243-0.668 0.265-1.171 0.464-1.519 0.597-3.949 1.442-6.719 2.414-8.32 2.922l-1.641 0.52c1.84-0.321 3.43-0.536 4.762-0.641 2-0.133 3.281-0.254 3.84-0.359 1.601-0.243 2.8-0.653 3.601-1.243 0.344-0.238 0.824-0.73 1.438-1.48 0.562-0.637 1.066-1.09 1.519-1.359 1.469-0.801 2.774-1.36 3.922-1.68 0.398-0.106 1.027-0.227 1.879-0.359 0.719-0.161 1.254-0.426 1.601-0.801-0.082-0.961-0.121-2.172-0.121-3.641-0.027-0.851-0.039-2.105-0.039-3.758-0.293-0.668-0.867-1.613-1.718-2.84-0.243-0.402-0.485-1.148-0.723-2.242zm-46.84-17.398-1.32 0.918c-0.457 0.347-0.84 0.762-1.16 1.242-0.055 0.105-0.348 0.613-0.883 1.52-0.641 1.144-1.012 1.933-1.117 2.359-0.215 0.933-0.375 2.105-0.481 3.519-0.109 1.653-0.187 2.868-0.242 3.641-0.106 0.984-0.145 2.199-0.117 3.641 0.023 1.625 0.039 2.84 0.039 3.636 0 0.723 0.144 1.297 0.437 1.723 0.242 0.348 0.723 0.731 1.442 1.16 0.855 0.481 1.492 0.813 1.922 1l1.718-4.16c-0.453 0.586-0.945 0.84-1.48 0.758-0.266-1.735-0.188-4.012 0.238-6.84 0.11-0.746 0.496-1.973 1.16-3.68 0.59-1.574 0.907-2.84 0.961-3.8 0.082-1.2 0.082-1.946 0-2.239-0.027-0.215-0.16-0.508-0.398-0.883-0.242-0.371-0.375-0.664-0.403-0.878-0.105-0.614 0.176-1.508 0.84-2.68l2.403-0.043c-1.387-0.024-2.575 0.004-3.563 0.086zm36.363 0.32c1.415 0.078 2.774 0.16 4.079 0.238-0.532-0.05-1.051-0.093-1.559-0.117-0.801-0.054-1.641-0.094-2.52-0.121zm-55.242 2.438c-1.121 0.132-2.121 0.226-3 0.281-1.011 0.078-2.133 0.133-3.359 0.16-0.535 0.508-1.453 1.227-2.762 2.16-1.277 0.906-2.156 1.598-2.637 2.078-2.136 2.137-3.48 3.535-4.043 4.203-0.238 0.426-0.425 0.825-0.558 1.2l-0.16 0.32c0.187 3.117 0.265 5.465 0.242 7.039 0 1.414-0.188 2.547-0.563 3.398-0.718 1.895-1.32 3.254-1.8 4.083-0.481 0.64-0.813 1.117-1 1.437-0.321 0.563-0.426 1.121-0.321 1.684 0.348 1.625 1.043 2.546 2.082 2.757 0.215 0.055 0.536 0.055 0.961 0 0.453-0.05 0.774-0.066 0.957-0.039 0.028 0 0.242 0.078 0.641 0.239 0.242 0.082 0.469 0.082 0.68 0 0.375-0.133 0.707-0.68 1-1.641 0.16-0.531 0.347-1.211 0.562-2.039 0.184-0.398 0.453-1.027 0.801-1.879 0.316-0.719 0.664-1.293 1.039-1.719 0.426 2.532 0.707 4.438 0.84 5.719l0.039 0.281c0.508 0.184 1.172 0.305 2 0.36 0.48 0.05 1.16 0.105 2.039 0.16 0.961 0.105 3.629 0.316 8 0.64 0.773 0.051 2.066 0.223 3.883 0.52 1.625 0.293 2.918 0.437 3.879 0.437 0.718 0 1.851-0.011 3.398-0.039 0.508-1.679 0.762-3.347 0.762-5 0-1.121-0.199-2.082-0.602-2.878-0.105-0.215-0.64-1.028-1.597-2.442-0.59-0.828-0.907-1.879-0.961-3.16-0.028-0.746-0.039-1.867-0.039-3.359-0.161-2.106-0.668-4.68-1.524-7.719-0.105-0.348-0.265-0.883-0.476-1.602-0.188-0.668-0.387-1.187-0.602-1.558-0.215-0.403-0.535-0.75-0.961-1.043-0.266-0.184-0.68-0.45-1.238-0.797-0.293-0.242-0.68-0.547-1.16-0.922-0.43-0.293-0.895-0.52-1.403-0.68-1.359-0.265-2.371-0.48-3.039-0.64zm-21.84 23.32c-1.148 0.613-2.148 1.402-3 2.359-0.961 1.067-1.519 2.137-1.679 3.203 0.16-0.242 0.48-0.668 0.961-1.281 0.132-0.187 0.293-0.508 0.48-0.961 0.16-0.426 0.32-0.746 0.481-0.961 0.293-0.347 0.691-0.73 1.199-1.16 0.265-0.211 0.691-0.547 1.277-1l0.281-0.199zm-73.596-14.801c0.133 0.988 0.133 2.094 0 3.32-0.43 2.614-0.707 4.586-0.84 5.922-0.215 2.426 0.172 4.625 1.156 6.598 0.481 1.066 0.817 2.148 1 3.242 0.11 0.692 0.203 1.813 0.281 3.36-0.105-0.188-0.293-0.68-0.558-1.481-0.215-0.558-0.496-1-0.84-1.32-0.348-0.293-0.949-0.664-1.801-1.117-0.695-0.426-1.254-1.043-1.68-1.84-0.16-0.297-0.48-1.071-0.96-2.321l0.16 1.2c0.133 0.718 0.242 1.265 0.32 1.64 0.133 0.641 0.332 1.145 0.602 1.52 0.183 0.265 0.57 0.613 1.16 1.039 0.613 0.402 1 0.719 1.16 0.961 0.184 0.32 0.316 0.918 0.398 1.801 0.055 0.957 0.133 1.586 0.239 1.879 0.32 1.093 0.507 1.679 0.562 1.761 0.211 0.586 0.531 1.078 0.957 1.477 0.508 0.48 1.055 0.91 1.641 1.281 4.801 0 8.254 0.16 10.359 0.481l2.121 0.359c1.547-0.399 3.813-0.774 6.801-1.121 0.746-0.133 3.254-0.492 7.52-1.078 3.093-0.426 5.558-0.895 7.402-1.403 0.851-0.238 1.758-0.625 2.719-1.16 0.48-0.265 1.32-0.785 2.519-1.558 0.801-0.481 1.305-0.801 1.52-0.961 0.508-0.399 0.894-0.868 1.16-1.399 0.453-0.984 0.414-1.652-0.121-2-1.039-0.695-1.613-1.121-1.719-1.281-0.215-0.32-0.266-0.891-0.16-1.719 0.105-1.039 0.148-1.64 0.121-1.801-0.133-0.933-0.641-2.16-1.52-3.679-0.722-1.305-2.043-2.426-3.961-3.36-1.761-0.855-3.48-1.308-5.16-1.359 0.879-0.215 2.028-0.32 3.442-0.32 1.758 0 2.89-0.028 3.398-0.082-0.293-0.266-0.734-0.653-1.32-1.161 0.535-0.105 1.16 0.016 1.879 0.364 0.054-0.723 0.054-1.27 0-1.641-0.051-0.746-0.117-1.176-0.199-1.281-0.028-0.082-0.348-0.348-0.961-0.801-0.184-0.133-0.664-0.426-1.438-0.879-0.613-0.347-1.082-0.695-1.402-1.043-0.211-0.183-0.547-0.57-1-1.156-0.399-0.508-0.746-0.883-1.039-1.121-2.055-1.625-4.785-3.199-8.2-4.719-0.8 0.027-1.48 0.067-2.039 0.117-0.347 0.028-1.093 0.028-2.242 0-0.933 0-1.664 0.055-2.199 0.16-1.066 0.243-2.332 0.653-3.801 1.243-1.652 0.718-2.879 1.25-3.679 1.597-3.2 1.469-5.653 2.563-7.36 3.282-1.601 0.668-3.066 1.187-4.398 1.558zm40.476 20.043c-0.078 0.879-0.597 1.438-1.558 1.68l-2.399 0.281c-1.519 0-4.988-0.094-10.402-0.281h-1.277c-0.481 0-0.883-0.067-1.204-0.199-0.613-0.27-1.304-0.883-2.078-1.84-0.425-0.508-1.015-1.242-1.761-2.203l-2.52-2.438c-1.117-1.066-1.828-1.949-2.117-2.64-0.188-0.454-0.16-1.106 0.078-1.961 0.16-0.454 0.387-1.067 0.68-1.84 0.082-0.293 0.375-1.465 0.879-3.52-0.106 1.254-0.172 2.238-0.2 2.961-0.078 1.36 0 2.344 0.243 2.957 0.16 0.43 0.558 1 1.199 1.723 0.746 0.746 1.226 1.25 1.437 1.519 0.668 0.797 1.535 1.707 2.602 2.719 1.519 1.465 3.719 2.281 6.601 2.442 4.344 0.238 6.758 0.425 7.239 0.558 0.133-0.961-0.106-1.801-0.719-2.519-0.348-0.454-0.961-1.172-1.84-2.161-0.375-0.668-0.641-1.414-0.801-2.242-0.214-1.09-0.082-1.758 0.399-2 0.508-0.238 1.054-0.133 1.64 0.321 0.161 0.136 0.563 0.535 1.2 1.203 0.242 0.238 0.613 0.57 1.121 1 0.535 0.425 0.906 0.746 1.121 0.957 0.613 0.613 0.945 1.281 1 2-0.055 0.906-0.082 1.652-0.082 2.242 1.066-0.027 1.574 0.398 1.519 1.281z" inkscape:connector-curvature="0"/>
          </g>
        </g>
      </g>
      <path id="path52" style="fill-rule:evenodd;fill:#abb5c0" d="m368.25 26.972-0.043-1.199c-0.586 1.199-1.586 2.507-3 3.917-2.934 2.907-4.934 5.133-6 6.68-1.785 2.613-2.707 5.281-2.758 8 0-6.293 0.039-10.012 0.117-11.16 0.27-4.266 1.043-7.918 2.321-10.957 0.773-1.84 1.254-2.961 1.441-3.359 0.586-1.121 1.293-2.071 2.121-2.84 0.211-0.188 0.613-0.469 1.199-0.844-0.082-0.078-0.175-0.156-0.281-0.238l-3.641-2.559c-0.371-0.215-0.773-0.469-1.199-0.762-1.679 1.414-2.933 2.493-3.761 3.243-1.52 1.332-2.532 2.625-3.04 3.879-0.691 1.812-0.984 4.507-0.878 8.082 0.05 0.957 0.32 2.332 0.8 4.117 0.481 1.84 0.746 3.226 0.797 4.16 0.137 1.601-0.199 3.519-1 5.762-1.117 3.066-1.746 4.918-1.879 5.558-0.746 3.602-0.414 7.465 1 11.602 0.746 1.625 1.332 2.984 1.762 4.078 0.051 0.027 0.09 0.039 0.117 0.039 2.613 0.883 4.735 1.762 6.36 2.641h0.043c-0.082-0.852-0.243-1.907-0.481-3.161-0.402-2.078-0.48-3.707-0.242-4.878 0.879-4.239 2.601-8.266 5.16-12.083-0.055 1.067-0.082 1.868-0.082 2.403-0.023 0.961 0.016 1.746 0.121 2.359 1.067-1.281 1.801-2.64 2.199-4.078 0.348-1.226 0.52-2.773 0.52-4.641 0-0.695-0.012-1.734-0.039-3.121-0.028-1.226-0.012-2.254 0.039-3.078 0.082-1.015 0.308-2.226 0.683-3.64 0.43-1.735 0.934-3.043 1.524-3.922zm-86.242 52.48c-3.653 0.055-6.16 0.254-7.52 0.598l-0.199 0.043-0.801 0.277c-0.426 0.586-0.215 1 0.641 1.242l0.918 0.2h0.16c1.199-0.106 3.066-0.36 5.601-0.762 2.426-0.371 4.282-0.613 5.559-0.719l3.121-0.238-0.039-0.043c-0.695-0.238-1.387-0.399-2.082-0.477-1.707-0.16-3.414-0.203-5.121-0.121h-0.238zm-74.16-49.48c-0.348 0.375-0.879 0.64-1.598 0.801-0.856 0.132-1.481 0.25-1.883 0.359-1.144 0.32-2.453 0.879-3.918 1.68-0.453 0.265-0.961 0.718-1.519 1.359-0.614 0.746-1.094 1.242-1.442 1.48-0.801 0.586-2 1-3.601 1.243-0.559 0.105-1.84 0.226-3.84 0.359-1.332 0.105-2.918 0.32-4.758 0.641-0.375 0.132-0.734 0.265-1.082 0.398 3.574 0.027 5.988-0.012 7.242-0.121 1.84-0.184 3.227-0.305 4.16-0.359 1.52-0.106 2.891-0.133 4.117-0.079 0.774 0.024 1.708 0.079 2.801 0.161 0.16-0.082 0.332-0.161 0.52-0.243 1.015-0.48 1.883-1.039 2.601-1.679 0.774-0.719 1.438-1.492 2-2.321 0.399-0.558 0.598-0.933 0.598-1.117 0.027-0.16-0.039-0.496-0.199-1l-0.199-1.562zm-5.239-16.879 0.239 0.16c1.492 0.93 2.574 1.77 3.242 2.52 0.773 0.824 1.465 1.984 2.078 3.48 0.105 0.266 0.441 0.945 1 2.039 0.426 0.801 0.695 1.481 0.801 2.039 0.082 0.453 0.105 0.867 0.082 1.242 0.316 0.985 0.531 2.227 0.636 3.719 0.082 1.707 0.137 2.961 0.161 3.758 0.054 0.961-0.36 2.027-1.239 3.203-1.039 1.414-1.668 2.426-1.879 3.039 0.77 0.078 1.571 0.16 2.399 0.238 1.679 0.137 3.238 0.215 4.679 0.243l-0.078-0.083c-0.214-0.371-0.375-0.957-0.48-1.757-0.109-1.067-0.188-1.696-0.242-1.883-0.188-0.641-0.293-1.277-0.321-1.918-0.078-0.746 0.121-1.613 0.602-2.602l0.16-0.48c0.184-0.504 0.641-1.117 1.359-1.84l2.122-2.598c0.398-0.562 0.586-1.359 0.558-2.402-0.054-1.547-0.066-2.414-0.039-2.598 0.133-0.988 0.598-2.066 1.399-3.242l0.199-0.558c0.883-1.789 1.988-4.348 3.32-7.68 0.531-1.414 0.586-2.442 0.16-3.082-0.265-0.453-1.054-1.184-2.359-2.199l-0.08-0.078c-0.133 0.078-0.293 0.171-0.481 0.281-0.265 0-0.547-0.028-0.839-0.082-0.079 0.801-0.25 1.492-0.52 2.082-0.023 0.078-0.371 0.636-1.039 1.679-0.399 0.641-0.586 1.266-0.559 1.879 0.024 0.426 0.16 1.039 0.399 1.84 0.269 0.883 0.414 1.508 0.441 1.883 0.133 1.57-0.668 3.637-2.402 6.199-1.52 2.211-2.332 4.106-2.438 5.68 0-0.746-0.015-1.707-0.043-2.879 0.028-1.387 0.215-2.551 0.563-3.48 0.984-2.696 1.48-5.094 1.48-7.204 0.024-1.25-0.121-2.304-0.441-3.16-0.348-0.957-0.961-1.812-1.84-2.558-0.426-0.375-1.187-0.973-2.281-1.801-0.934-0.824-1.52-1.613-1.758-2.359-0.109-0.028-0.199-0.04-0.281-0.04-0.055 0-0.094-0.015-0.121-0.039l-10.08-1.043c-1.309-0.078-2.668-0.16-4.082-0.238l-9.04-0.32c-2.132-0.028-4.414-0.051-6.839-0.082h-16.922l-2.399 0.043c-0.668 1.172-0.945 2.066-0.84 2.679 0.028 0.215 0.161 0.508 0.399 0.879 0.242 0.375 0.375 0.668 0.402 0.883 0.078 0.293 0.078 1.039 0 2.238-0.054 0.961-0.375 2.227-0.961 3.801-0.668 1.707-1.054 2.934-1.16 3.68-0.426 2.828-0.508 5.105-0.238 6.84 0.531 0.082 1.023-0.172 1.48-0.758 0.532-0.641 0.934-1.52 1.2-2.641l0.16-1.043c0.105-0.984 0.183-1.597 0.238-1.839 0.133-0.719 0.336-1.211 0.602-1.477 0.265-0.27 0.773-0.469 1.519-0.602 0.691-0.132 1.188-0.347 1.481-0.64 0.48-0.481 0.785-1.028 0.918-1.641 0.054-0.293 0.082-0.906 0.082-1.84 0.027-1.785 0.183-3.039 0.48-3.761 0.398-1.012 1.293-1.825 2.68-2.438 1.758-0.773 4.48-1.426 8.16-1.961 5.039 0.586 7.824 0.895 8.359 0.922 5.278 0.344 9.801 1.145 13.559 2.398 1.519 0.481 2.64 0.946 3.359 1.399 1.414 0.883 1.895 1.855 1.442 2.922-0.371 0.851-1.254 1.105-2.641 0.758-0.531-0.106-1.547-0.493-3.039-1.161-1.227-0.531-2.359-0.757-3.402-0.679-1.067 0.082-2.184 0.468-3.36 1.16-1.011 0.613-1.797 1.281-2.359 2-0.426 0.586-0.934 1.492-1.52 2.719-0.347 0.773-0.961 1.656-1.84 2.64-1.011 1.149-1.679 1.989-2 2.52 0.243-0.321 0.614-0.653 1.122-1 0.668-0.426 1.078-0.707 1.238-0.84 0.375-0.32 0.812-0.824 1.32-1.52 0.586-0.773 1-1.281 1.242-1.519l0.2-0.199c0.824-1.2 1.945-2.094 3.359-2.68 1.359-0.535 2.812-0.734 4.359-0.602 0.75 0.028 1.492 0.2 2.242 0.52 1.09 0.242 1.918 0.496 2.481 0.762 0.934 0.453 1.703 1.172 2.316 2.16h0.004zm133.64 35.078c-0.16 0.242-0.293 0.496-0.402 0.762l4.16-4.36c-1.84 1.52-3.067 2.68-3.68 3.477-0.027 0.027-0.055 0.066-0.078 0.121zm-1.602-24.039 0.68 1.558c0.508 1.176 0.773 2.68 0.801 4.52-0.055 2.109-0.082 3.656-0.082 4.641 0.109 1.332 0.187 2.468 0.242 3.402h0.117c2.188 0.105 4.363 0.387 6.524 0.84v0.039c0.371-0.934 0.586-1.559 0.636-1.879 0.082-0.586 0.121-1.32 0.121-2.203 0-0.504-0.015-1.238-0.039-2.199 0-0.586-0.054-2.094-0.16-4.52-0.082-1.84-0.054-3.375 0.078-4.598 0.11-0.91 0.309-2.386 0.602-4.441 0.187-1.812 0.16-3.293-0.082-4.441-0.317-1.465-1.211-2.614-2.68-3.442-0.851-0.453-2.211-1.023-4.078-1.719 0.051 0.243 0.332 0.79 0.84 1.641 0.371 0.641 0.48 1.281 0.32 1.922-0.133 0.504-0.519 1.105-1.16 1.797-0.668 0.695-1.066 1.293-1.199 1.801-0.082 0.347-0.242 1.558-0.481 3.64-0.187 1.625-0.519 2.84-1 3.641zm17.879 21.879c-0.187-0.504 0.199-1.399 1.16-2.68 0.934-1.254 1.707-1.945 2.321-2.078 0.293 2.773 0.441 4.891 0.441 6.359 0 1.758-0.066 4.371-0.203 7.84-0.133 3.465-0.199 6.067-0.199 7.801l-0.8-12.402c0-2.028-0.039-3.172-0.117-3.438-0.27-0.906-1.133-1.375-2.602-1.402zm-10.558-3.481 0.078-0.078v-0.039c-0.024 0.051-0.051 0.09-0.078 0.117zm-16.68-7.078-0.68 0.321-0.801 0.796c-0.507-0.558-0.734-1.492-0.679-2.796 0.051-1.122 0.254-2.083 0.597-2.883 0-0.024 0.176-0.532 0.52-1.52 0.242-0.691 0.469-1.117 0.684-1.281 0.293-0.211 1.05-0.211 2.277 0 0.109 0.75 0.16 1.402 0.16 1.961 0.242-1.918 0.016-3.305-0.68-4.16-0.531-0.692-1.304-1.145-2.32-1.36-0.961-0.187-1.851-0.105-2.68 0.243-0.961 0.343-1.519 1.093-1.679 2.238 0 0.133 0.011 1.172 0.039 3.121 0.187 1.465 0.293 2.574 0.32 3.32-0.027 0.453-0.051 0.785-0.082 1-0.023 0.426 0 0.758 0.082 1 0.215 0.692 0.774 1.106 1.68 1.238 0.508 0.083 1.269 0.133 2.281 0.161l0.961-1.399zm3.16-26.64c0.531 1.226 0.801 2.828 0.801 4.8 0.023 1.625 0.133 2.692 0.316 3.2 0.27 0.8 0.922 1.492 1.961 2.082-0.293-0.243-0.492-0.496-0.597-0.762 1.304-0.375 2.25-1.238 2.839-2.598 0.504-1.094 0.731-2.402 0.68-3.922 0-0.988-0.082-1.734-0.242-2.238-0.21-0.562-0.62-1.133-1.24-1.723-0.72-0.691-1.85-1.718-3.4-3.078-0.293 0.508-0.41 1.305-0.359 2.399 0.055 1.359 0.055 2.215 0 2.562-0.293-0.187-0.547-0.429-0.758-0.722zm-2.84-5.282c0.481 0.426 0.907 1.043 1.278 1.84 0.429 1.043 0.773 1.828 1.043 2.363-0.161-0.375-0.375-0.949-0.641-1.722l-1.242-2.481-0.039-0.039h-0.481c0.024 0.028 0.059 0.039 0.082 0.039zm-19.64 11.203-0.161-0.242c0.614-0.105 1.239-0.066 1.879 0.121 0.348 0.106 0.895 0.293 1.641 0.559-0.133-0.266-0.348-0.586-0.641-0.961-0.32-0.371-0.531-0.652-0.64-0.84-0.16-0.32-0.239-0.851-0.239-1.597-0.109-0.536-0.308-1.321-0.601-2.364-0.051-0.211-0.09-0.531-0.117-0.957-0.028-0.429-0.067-0.746-0.121-0.961-0.051-0.187-0.188-0.492-0.399-0.918-0.187-0.402-0.308-0.722-0.363-0.961-0.184-0.828-0.344-1.347-0.477-1.558-0.136-0.321-0.281-0.586-0.441-0.801h-0.039c-0.453-0.055-1.133-0.188-2.043-0.402-1.918-0.641-3.359-1.012-4.32-1.118-2.079-0.242-4.957 0.266-8.637 1.52-0.617 0.027-1.203 0.039-1.762 0.039l0.121 0.121c0.641 0.906 1.438 1.707 2.399 2.399 1.148 0.906 1.879 1.535 2.199 1.878 0.426 0.508 0.734 1.243 0.922 2.204 0.051 0.265 0.16 1.066 0.32 2.398 0.184 1.414 0.277 3.547 0.277 6.398l-0.277-0.796c-0.215-0.348-0.375-0.817-0.48-1.403-0.161-0.906-0.254-1.398-0.282-1.48-0.265-0.934-0.789-1.918-1.558-2.957-1.496-2.11-3.215-3.696-5.16-4.762-0.375-0.215-1.161-0.559-2.364-1.039-1.011-0.402-1.746-0.773-2.199-1.121-0.398-0.293-0.957-0.918-1.68-1.879-0.984-0.082-1.878-0.188-2.679-0.32-0.082-0.028-1.016-0.293-2.801-0.801-0.078 0-0.16-0.012-0.238-0.039 0.16 0.879 0.277 1.558 0.359 2.039 0.16 0.828 0.371 1.441 0.641 1.84 0.347 0.535 1.066 1.054 2.16 1.562 1.25 0.531 2.09 0.934 2.519 1.199 2.454 1.438 4.278 2.774 5.481 4 1.199 1.2 1.984 2.758 2.359 4.68 0.211 1.121 0.321 2.918 0.321 5.399 0 2.402-0.227 4.308-0.684 5.722-0.316 1.039-0.84 2.223-1.559 3.559-0.691 1.305-1.238 2.332-1.64 3.078 0.242-0.348 0.613-0.703 1.121-1.078 0.961-0.668 1.492-1.055 1.598-1.16 0.535-0.508 1.296-1.332 2.281-2.481 0.613-0.668 1.562-1.695 2.84-3.082 1.121-1.25 1.949-2.359 2.48-3.316 0.856-1.574 1.414-3.52 1.68-5.844 0.242-2.051 0.215-4.105-0.078-6.156-0.082-0.668-0.254-1.242-0.52-1.723-0.187-0.32-0.562-0.797-1.121-1.437-0.027-0.028-0.227-0.176-0.598-0.442-0.293-0.187-0.468-0.347-0.519-0.48-0.242-0.828 0.051-1.414 0.879-1.762 0.718-0.316 1.465-0.387 2.238-0.199 1.414 0.347 2.75 1.496 4 3.441 1.203 1.867 1.762 3.508 1.684 4.918 0.156 0.028 0.73 0.055 1.718 0.082 0.559 0 1 0.094 1.321 0.281zm-38.2-1.043c0.161-0.667 0.278-1.304 0.36-1.917 0.078-0.696 0.387-1.614 0.918-2.762 0.082-0.344 0.121-0.801 0.121-1.36-0.055-0.691-0.067-1.132-0.039-1.32 0.211-2.238 0.344-3.918 0.398-5.039h-0.199c-0.402 2.027-1.066 4.254-2 6.68-0.43 1.254-0.789 2.054-1.082 2.402-0.348-0.348-0.508-1.242-0.48-2.684 0.027-1.73 0-2.746-0.079-3.039-0.347-1.199-0.8-2.078-1.359-2.64-0.082-0.078-0.32-0.254-0.723-0.52-1.464 0.055-2.613 0.094-3.437 0.121-2.883 0.028-6.137 0.121-9.762 0.282l-7.281 0.359c-0.559 0.051-1.133 0.094-1.719 0.117l0.082 0.121c0.317 0.375 0.504 0.641 0.559 0.801 0.082 0.16 0.133 0.508 0.16 1.039 0.078 0.774-0.066 1.774-0.441 3-0.372 1.359-0.559 2.336-0.559 2.922 0.32-0.215 0.84-0.52 1.559-0.922 0.718-0.375 1.242-0.68 1.562-0.918 0.156-0.133 0.852-0.762 2.078-1.883 0.801-0.773 1.602-1.277 2.399-1.519 1.093-0.321 2.55-0.414 4.363-0.278 2.824 0.239 4.277 0.36 4.359 0.36 0.504 0 1.344-0.016 2.52-0.043 0.984 0.109 1.707 0.453 2.16 1.043 0.238 0.293 0.426 0.863 0.559 1.719 0.16 0.878 0.347 1.492 0.558 1.839 0.242 0.372 0.895 1.133 1.961 2.282 0.879 0.957 1.441 1.785 1.68 2.48 0.105 0.32 0.16 0.731 0.16 1.238-0.078 1.172-0.121 2-0.121 2.481v2.121c0.082-2.773 0.32-4.895 0.722-6.359l0.043-0.204zm43.797-10.039h-0.277c0 0.801-0.094 1.493-0.281 2.082-0.375 1.571-0.586 2.559-0.641 2.957-0.105 0.961 0.016 1.907 0.359 2.84 0.563 1.707 0.747 3.387 0.563 5.043-0.402 2.797-0.922 4.399-1.563 4.797-0.105-0.48-0.253-1.133-0.437-1.957-0.16-0.668-0.387-1.281-0.684-1.84-0.476-0.906-0.972-1.562-1.476-1.961l-0.481-0.32 0.321 0.398c1.304 2 1.812 4.254 1.519 6.762-0.054 0.371-0.215 1.028-0.48 1.957-0.242 0.75-0.36 1.414-0.36 2-0.082 1.309-0.132 2.336-0.16 3.082-0.054 1.332 0.106 2.282 0.481 2.84 0.078-0.453 0.132-1.293 0.16-2.519 0.027-1.039 0.133-1.868 0.32-2.481 0.481-1.492 1.051-2.984 1.719-4.48 0.266-0.641 0.68-1.493 1.238-2.559 0.402-0.934 0.613-1.828 0.641-2.68 0.054-1.414-0.039-3.16-0.281-5.242-0.051-0.586-0.227-1.945-0.52-4.078-0.184-2.055-0.078-3.602 0.32-4.641zm-73.597 32.282c0.691 0.211 1.215 0.347 1.558 0.398h0.922c0.879-0.051 1.449-0.066 1.719-0.039 0.906 0.106 2.266 0.281 4.078 0.52 1.602 0.16 2.988 0.16 4.16 0 0.133-0.536 0.11-1.2-0.078-2-0.109-0.454-0.293-1.082-0.562-1.879-0.637 0.449-1.411 0.691-2.317 0.718-0.961 0.028-1.734-0.199-2.32-0.679-0.16-0.133-0.414-0.387-0.762-0.762-0.293-0.32-0.574-0.559-0.84-0.719l-1.597-0.801c-1.204-0.667-2.028-1.187-2.481-1.558-0.801-0.668-1.32-1.453-1.562-2.359-0.504-1.735-0.664-3.618-0.481-5.641 0.16-1.895 0.602-3.652 1.32-5.281-0.292 0.558-0.945 1.601-1.96 3.121-0.825 1.25-1.25 2.504-1.278 3.758 0 1.949 0.078 3.878 0.238 5.8 0.082 0.985 0.122 1.493 0.122 1.52 0.023 0.64-0.028 1.133-0.161 1.48-0.105 0.321-0.48 0.879-1.121 1.68-0.586 0.695-0.894 1.281-0.918 1.762l-0.8 0.519c1.757 0 2.894 0.024 3.398 0.078 0.641-0.746 0.988-1.812 1.043-3.199 0.051-0.773 0.105-1.918 0.16-3.441l1.84 4.722c0.184 0.664 0.344 1.145 0.48 1.438 0.211 0.535 0.571 0.855 1.079 0.961l-3-0.199 0.121 0.082zm-34.52-21.442c0.641 1.199 1.145 2.082 1.52 2.641l0.281 0.359c-0.055-0.398-0.149-0.758-0.281-1.082-0.243-0.691-0.746-1.332-1.52-1.918zm-70.281-11.199 0.039-0.039-3 0.078c-0.481 0.453-1.012 1.082-1.598 1.879-0.64 0.91-1.109 1.547-1.402 1.922-1.145 1.359-1.785 2.105-1.918 2.238-0.641 0.828-1.16 1.613-1.563 2.363 0.563-0.668 1.907-2.066 4.043-4.203 0.481-0.48 1.36-1.172 2.637-2.078 1.309-0.933 2.227-1.652 2.762-2.16zm-34.6 38.598 1.242-2.36c0.825-1.277 1.348-2.304 1.559-3.078 0.293-1.043 0.469-2.414 0.52-4.121 0.027-1.547-0.039-2.961-0.2-4.238-0.16-1.203-0.812-2.602-1.961-4.203-1.304-1.84-2.093-3.157-2.359-3.957-0.183-0.563-0.519-1.52-1-2.883-0.559-1.039-1.437-1.36-2.641-0.957-0.05 0.426-0.093 1.211-0.117 2.359-0.054 1.012-0.136 1.813-0.242 2.399-0.051 0.265-0.32 1.254-0.801 2.961-0.343 1.199-0.504 2.187-0.476 2.961-0.11-0.641-0.203-1.989-0.282-4.043-0.054-1.68-0.242-2.985-0.558-3.918-0.828-0.133-2-0.266-3.524-0.403-1.625-0.133-2.812-0.25-3.558-0.359-0.027-0.426-0.254-0.824-0.68-1.199-0.508 0.054-1.64 0.082-3.398 0.082-1.414 0-2.563 0.105-3.442 0.32 1.68 0.051 3.399 0.504 5.16 1.359 1.918 0.934 3.239 2.051 3.961 3.36 0.879 1.519 1.387 2.746 1.52 3.679 0.027 0.161-0.016 0.758-0.121 1.801-0.106 0.824-0.055 1.399 0.16 1.719 0.106 0.16 0.68 0.586 1.719 1.281 0.535 0.348 0.574 1.012 0.121 2-0.266 0.531-0.652 1-1.16 1.399-0.215 0.16-0.719 0.48-1.52 0.961-1.199 0.773-2.039 1.293-2.519 1.558-0.961 0.535-1.868 0.922-2.719 1.16-1.844 0.508-4.309 0.973-7.402 1.403-4.266 0.586-6.774 0.945-7.52 1.078-2.988 0.347-5.254 0.719-6.801 1.121 0.934 0.133 4.281 0.719 10.039 1.758 4.43 0.773 9.043 1.16 13.84 1.16h4.363c1.571-0.078 2.918-0.414 4.039-1 1.172-0.664 2.055-1.051 2.641-1.16 0.426-0.078 1.012-0.106 1.758-0.078 0.402 0.027 0.977 0.05 1.723 0.078h0.636zm21.563-20.52c-0.028-1.117 0.078-3.199 0.32-6.238 0-0.055 0.559-1.602 1.68-4.641 0.824-2.215 0.812-3.707-0.039-4.48-0.27-0.266-0.774-0.426-1.524-0.481-0.586-0.05-1.144-0.027-1.679 0.082-0.051 0-0.52 0.161-1.399 0.481-0.453 0.16-0.933 0.133-1.441-0.082-0.586-0.238-1.481-1.16-2.68-2.758h-3.879c-0.082 0.078-1.359 1.09-3.84 3.039-1.547 1.199-2.507 2.281-2.879 3.238-0.214 0.563-0.335 1.321-0.363 2.282 0.028 1.093 0.043 1.894 0.043 2.398 0.027 1.23 0.293 2.684 0.801 4.363 0.691 2.399 1.09 3.825 1.199 4.278 0.211 0.933 0.399 1.547 0.559 1.839 0.265 0.508 0.746 0.829 1.441 0.961 1.254 0.215 2.051-0.293 2.399-1.519 0.214-0.692 0.347-1.785 0.402-3.281 0.023-0.106 0.051-0.719 0.078-1.84 0.027-0.692 0.172-1.278 0.441-1.758 0.481-0.906 1.637-2.082 3.481-3.52-0.082 0.321-0.297 0.879-0.641 1.68-0.293 0.719-0.48 1.293-0.562 1.719-0.078 0.375-0.094 0.922-0.039 1.641 0.082 0.8 0.105 1.347 0.082 1.64-0.082 0.852-0.348 2.055-0.801 3.598-0.453 1.629-0.734 2.828-0.84 3.601-0.375 3.172-0.133 6.243 0.719 9.2l0.398 1.402c0.16-0.293 0.242-0.68 0.242-1.16 0.028-0.27 0.028-0.696 0-1.281-0.027-0.934 0.266-1.708 0.879-2.321l-0.039-0.64c0-0.372 0.121-0.735 0.36-1.079 0.16-1.066 0.718-2.136 1.679-3.203 0.852-0.957 1.852-1.746 3-2.359 1.067-0.746 1.653-1.199 1.762-1.359 0.293-0.481 0.492-1.52 0.598-3.122l0.082-0.32zm-36.079-5.32c1.015 0.48 1.679 0.75 2 0.801 0.961 0.16 2.547 0.148 4.761-0.039 0-0.055 0.028-0.735 0.079-2.039 0.027-0.75 0.187-1.387 0.48-1.922 0.215-0.426 0.586-1 1.121-1.719 0.613-0.828 1.012-1.399 1.199-1.719 0.481-0.855 0.747-1.48 0.801-1.883 0.133-0.691-0.082-1.304-0.64-1.84-0.879-0.878-2.559-1.691-5.04-2.437h-8.601c-4.586 0-8.051 0.051-10.399 0.156 3.415 1.524 6.145 3.094 8.2 4.723 0.293 0.238 0.64 0.613 1.039 1.117 0.453 0.59 0.789 0.973 1 1.16 0.32 0.348 0.789 0.696 1.402 1.043 0.774 0.453 1.254 0.746 1.438 0.879 0.613 0.453 0.933 0.719 0.961 0.801 0.082 0.105 0.148 0.531 0.199 1.277 0.054 0.375 0.054 0.922 0 1.641zm-39.957-4.68c-1.203 0.348-2.282 0.574-3.242 0.684h-0.04c-0.453 0.051-1.093 0.051-1.921 0-0.797-0.055-1.414-0.043-1.84 0.039 0.16 0.426 0.629 1.199 1.402 2.32 0.266 0.371 0.438 0.746 0.52 1.117 0.027 0.188 0.039 0.614 0.039 1.282-0.133 2.16-0.188 3.8-0.16 4.921 0.054 1.278 0.265 2.317 0.64 3.118l0.36 0.882c0.48 1.25 0.8 2.024 0.96 2.317 0.426 0.801 0.985 1.414 1.68 1.84 0.852 0.453 1.453 0.828 1.801 1.121 0.344 0.32 0.625 0.762 0.84 1.32 0.265 0.801 0.453 1.293 0.558 1.481-0.078-1.547-0.171-2.668-0.281-3.36-0.183-1.094-0.519-2.176-1-3.242-0.984-1.973-1.371-4.172-1.156-6.598 0.133-1.336 0.41-3.308 0.84-5.922 0.133-1.226 0.133-2.332 0-3.32z" inkscape:connector-curvature="0"/>
      <path id="path54" style="fill-rule:evenodd;fill:#b7c2cd" d="m322.77 78.773 1.278-0.442c0.027 0 0.07-0.012 0.121-0.039 0.105-0.027 0.226-0.066 0.359-0.121l1.481-0.438v-0.043c0.32-0.664 0.547-1.492 0.679-2.48 0.133-0.906 0.161-1.703 0.082-2.398-0.132-1.012-1.187-2.227-3.16-3.641-1.867-1.332-2.801-2.586-2.801-3.758 0.907-0.348 2.161-0.297 3.762 0.16 1.414 0.399 2.547 0.934 3.399 1.598 2 1.574 3.558 4.48 4.679 8.719 0.028 0 0.055-0.012 0.082-0.039 0.614-0.133 1.215-0.266 1.801-0.399l0.598-0.16 2.121-2.441c0.293-0.344 0.641-0.746 1.039-1.2 0.242-0.375 0.398-0.812 0.48-1.32 0.082-0.558 0-1.144-0.238-1.758-0.215-0.59-0.613-1.015-1.203-1.281-0.773-0.266-1.383-0.492-1.84-0.68-2.105-0.879-4.094-1.414-5.957-1.601-1.07-0.078-2.707-0.106-4.922-0.078-2.16 0.023-3.801-0.016-4.918-0.121-0.453-0.055-1.269-0.227-2.441-0.52-1.066-0.266-1.852-0.414-2.359-0.441 0.265 0.347 0.746 1.054 1.441 2.121 0.559 0.879 1.066 1.558 1.519 2.039 0.665 0.695 1.145 1.32 1.438 1.879 0.695 1.336 0.961 2.695 0.801 4.082-0.348 1.011-0.625 1.918-0.84 2.718-0.426 1.52-0.426 2.52 0 3 0.801-0.105 1.668-0.32 2.601-0.64 0.239-0.078 0.543-0.172 0.918-0.277zm-139.52 2.64 0.039 0.039c0.664 0.028 1.344 0.055 2.039 0.078h0.68c1.121 0.055 2.121 0.067 3 0.043l1.48-0.121c-1.625 0.055-2.851-0.148-3.68-0.601-0.585-0.293-1.265-0.895-2.039-1.801-0.988-1.145-1.628-1.84-1.921-2.078-0.692-0.614-1.852-1.332-3.481-2.16-1.598-0.829-2.758-1.559-3.48-2.2-1.305-1.175-2.039-1.812-2.2-1.922 0.641-0.347 1.602-0.453 2.879-0.32 0.696 0.055 1.684 0.188 2.961 0.403 3.067 0.292 5.106 0.453 6.121 0.48 0.668 0 1.707-0.016 3.121-0.043 1.227 0.027 2.239 0.203 3.039 0.523 2.934 1.25 4.961 2.504 6.079 3.758 0.32 0.375 0.629 0.879 0.921 1.52 0.426 0.988 0.68 1.547 0.758 1.679l0.641 1.122 1.48-0.321 8.922-1.078c0.477-0.027 0.957-0.043 1.438-0.043-0.024 0-0.039-0.012-0.039-0.039-1.602-1.094-4.039-2.625-7.321-4.598-0.531-0.347-1.386-1.015-2.558-2-1.039-0.855-1.906-1.468-2.602-1.843-0.719-0.399-1.867-0.985-3.437-1.758-1.36-0.695-2.442-1.359-3.242-2-0.188-0.16-1.118-0.973-2.801-2.442-1.117-0.984-2.117-1.746-3-2.277-0.852-0.535-1.957-0.84-3.321-0.922-1.57 0.028-2.73 0.039-3.476 0.039-1.867 0.028-5.297 0.254-10.281 0.68-4.321 0.375-7.746 0.508-10.282 0.402-3.253-0.16-6.32-0.789-9.199-1.879-1.226-0.64-2.133-0.976-2.719-1 0.586 0.665 1.653 1.625 3.2 2.879 1.492 1.172 2.547 2.145 3.16 2.918 1.199 1.789 2.199 3.067 3 3.84 0.48 0.403 0.84 0.707 1.078 0.922 0.426 0.398 0.68 0.773 0.762 1.121-0.082 0.024-0.149 0.039-0.2 0.039 1.653 0.692 2.797 1.188 3.438 1.481 3.227 1.492 4.894 2.265 5 2.32 1.949 0.824 3.68 1.414 5.199 1.758 0.695 0.16 1.695 0.387 3 0.679 1.121 0.266 2.094 0.563 2.922 0.883 0.266 0.106 0.695 0.266 1.281 0.477 0.532 0.187 0.934 0.387 1.199 0.601 0.293 0.215 0.614 0.614 0.961 1.2 0.372 0.613 0.692 1.027 0.957 1.242l0.524 0.32zm36.078-42.801c-0.559 0.055-1.137 0.094-1.719 0.121l-1.359 0.04c-0.828 0.027-1.695 0.027-2.602 0 5.653 2.078 9.332 3.398 11.039 3.96 3.227 1.09 5.043 1.704 5.442 1.84 2.055 0.746 3.828 1.52 5.32 2.317 1.227 0.695 2.145 1.203 2.758 1.523 1.094 0.586 2.066 0.973 2.922 1.16 0.879 0.184 1.437-0.054 1.679-0.722 0.028-0.051 0.161-0.84 0.399-2.36 0.508-2.851 0.48-5.453-0.078-7.801-0.586-0.105-1.16-0.199-1.723-0.281l-7.558-0.679-7.758 0.16c-1.789 0.133-3.641 0.332-5.563 0.601-0.398 0.055-0.801 0.094-1.199 0.121zm69.922 0.559c-1.734 0.16-3.52 0.359-5.363 0.602-2.559 0.347-5.426 0.531-8.598 0.558h-1.359l-6.082-0.078c-0.348-0.027-0.707-0.043-1.079-0.043 1.438 0.348 2.692 0.84 3.758 1.48 2.746 1.602 4.133 2.403 4.16 2.403 1.469 0.691 3.012 1.023 4.641 1h9.641c0.265 0 1.437 0.039 3.519 0.117 1.758-0.105 2.094-0.547 1-1.32-0.293-0.211-0.773-0.426-1.441-0.637-0.321-0.215-0.613-0.535-0.879-0.961l-0.68-1.16c-0.242-0.453-0.656-1.109-1.242-1.961h0.004zm33.797 0.359h-0.719c-1.973-0.023-4.398-0.132-7.281-0.32-0.106 0-0.199-0.012-0.281-0.039l-0.598-0.039c-0.586-0.027-1.199-0.055-1.84-0.082 1.277 0.535 3.051 1.668 5.32 3.402 2.719 1.758 4.797 3.067 6.239 3.918 2.507 1.496 4.707 2.563 6.601 3.203 1.918 0.664 3.586 0.934 5 0.797 0.051-0.504 0.172-0.984 0.36-1.437 0.105-0.266 0.238-0.52 0.398-0.762-0.934-0.961-1.961-1.824-3.078-2.598l-7.563-6.203c-0.933 0.11-1.781 0.16-2.558 0.16zm-15.758 2.043c0.531-0.453 0.598-1.402 0.199-2.84-1.918-0.109-3.359-0.16-4.32-0.16-0.32 0.45-0.36 0.985-0.117 1.598 0.211 0.586 0.84 1.082 1.879 1.48 1.066 0.375 1.851 0.348 2.359-0.078z" inkscape:connector-curvature="0"/>
      <path id="path56" style="fill-rule:evenodd;fill:#a9b3bd" d="m326.01 77.733c0.746-0.214 1.441-0.414 2.082-0.601l4.558-1.242c-1.121-4.239-2.679-7.145-4.679-8.719-0.852-0.664-1.989-1.199-3.403-1.598-1.597-0.453-2.851-0.508-3.758-0.16 0 1.172 0.934 2.426 2.801 3.758 1.973 1.414 3.024 2.629 3.16 3.641 0.079 0.695 0.051 1.492-0.082 2.398-0.132 0.988-0.359 1.816-0.679 2.48v0.043zm-135.52 3.719c1.406-0.101 3.133-0.344 5.18-0.719 0.086-0.011 0.172-0.027 0.262-0.043l3.32-0.679c0.316-0.055 0.637-0.121 0.957-0.199l-0.64-1.122c-0.078-0.132-0.332-0.691-0.758-1.679-0.292-0.641-0.601-1.145-0.921-1.52-1.118-1.254-3.145-2.508-6.079-3.758-0.8-0.32-1.812-0.496-3.039-0.523-1.414 0.027-2.453 0.043-3.121 0.043-1.015-0.027-3.054-0.188-6.121-0.48-1.277-0.215-2.265-0.348-2.961-0.403-1.277-0.133-2.238-0.023-2.879 0.32 0.161 0.11 0.895 0.747 2.2 1.922 0.722 0.641 1.882 1.371 3.48 2.2 1.629 0.828 2.789 1.546 3.481 2.16 0.293 0.238 0.933 0.933 1.921 2.078 0.77 0.906 1.454 1.508 2.039 1.801 0.825 0.453 2.051 0.656 3.68 0.601z" inkscape:connector-curvature="0"/>
      <path id="path58" style="fill-rule:evenodd;fill:#dddee0" d="m39.852 25.733-0.36-0.882c-0.375-0.801-0.586-1.84-0.64-3.118l-0.399-1.043c0.051 2.641 0.133 4.403 0.238 5.282 0.188 2.051 0.575 3.718 1.161 5 0.214 0.48 0.679 1.359 1.402 2.64 0.613 1.067 1.039 1.946 1.277 2.641 0.188 0.504 0.254 1.48 0.199 2.918 0 0.586-0.16 1.039-0.476 1.359-0.242 0.215-0.707 0.469-1.402 0.762-0.879 0.426-1.575 0.773-2.079 1.039 1.415-0.32 2.598-0.547 3.559-0.68 4.027-0.586 9.106-0.425 15.238 0.481 3.414 0.508 8.43 1.293 15.043 2.359 5.36 0.535 10.707 0.84 16.039 0.922 2.239 0.051 4.879-0.242 7.918-0.883 1.735-0.371 4.321-0.984 7.762-1.84l1.68-0.359c1.226-0.215 2.746-0.453 4.558-0.719l0.242-0.039c0.055 0 0.122-0.015 0.2-0.043 0.668-0.132 1.242-0.265 1.718-0.398 1.336-0.348 3.227-0.895 5.68-1.641 2.59-0.801 4.469-1.359 5.641-1.679 3.469-0.961 7.293-1.508 11.48-1.641 2.375-0.055 6.254 0.051 11.641 0.32 4.398 0.239 11.105 0.707 20.121 1.399 7.172 0.242 12.812 0.375 16.918 0.402 0.348-0.137 0.707-0.269 1.082-0.402l1.641-0.52c1.597-0.504 4.371-1.48 8.316-2.918 0.348-0.133 0.855-0.336 1.52-0.601 0.507-0.293 0.722-0.707 0.64-1.239l0.52-0.32c-0.453 0.051-0.934-0.016-1.438-0.199-0.16-0.082-0.601-0.293-1.32-0.641-1.309-0.668-2.067-1.027-2.281-1.082-0.641-0.051-1.067-0.133-1.282-0.238-0.906-0.426-1.906-1.32-3-2.68-1.414-1.762-2.304-2.988-2.679-3.683-0.532-0.985-0.801-2.481-0.801-4.481-0.106 2.215-0.145 3.867-0.117 4.961 0.05 1.922 0.426 3.453 1.117 4.602 0.187 0.32 0.496 0.64 0.922 0.957 0.558 0.429 0.906 0.722 1.039 0.882 0.613 0.879 1.148 1.508 1.601 1.879 0.934 0.801 2.239 1.321 3.918 1.563l-0.441 0.238c-0.371 0.16-0.945 0.281-1.719 0.36-0.851 0.082-1.441 0.16-1.758 0.242-1.043 0.398-1.839 0.652-2.402 0.758-0.824 0.132-1.906 0.132-3.238 0-1.735-0.161-2.817-0.239-3.242-0.239-1.36 0-3.399 0.09-6.118 0.278-2.695 0.187-4.734 0.281-6.121 0.281-1.359 0.027-2.375 0.039-3.039 0.039-1.226 0-2.254-0.078-3.082-0.238-2.801-0.536-4.613-1.121-5.441-1.762l0.402-2c0.16-0.664 0.414-1.438 0.758-2.316 0.187-0.481 0.496-1.215 0.922-2.204 0.265-0.636 0.453-1.519 0.558-2.636 0.137-1.684 0.215-2.59 0.243-2.723 0.16-1.172 0.32-3.371 0.48-6.598l-0.363 1-0.156 1.039c-0.27 1.122-0.668 2-1.204 2.641l-1.718 4.16c-0.426-0.187-1.067-0.519-1.922-1-0.719-0.426-1.199-0.812-1.438-1.16-0.293-0.426-0.441-1-0.441-1.719 0-0.8-0.012-2.015-0.039-3.64-0.028-1.442 0.012-2.653 0.121-3.641 0.051-0.773 0.133-1.984 0.238-3.641 0.106-1.414 0.266-2.586 0.481-3.519 0.105-0.426 0.48-1.215 1.121-2.359 0.531-0.907 0.824-1.415 0.879-1.52 0.32-0.48 0.707-0.895 1.16-1.242l1.32-0.918-0.32 0.039c-0.238 0.027-0.508 0.051-0.801 0.078l-7.199 1c-0.426 0.055-0.856 0.121-1.281 0.203-1.305 0.211-2.493 0.41-3.559 0.598l-5.398 0.801h-0.161c-0.054 0.027-0.109 0.039-0.16 0.039 0.664 0.16 1.68 0.375 3.039 0.64 0.504 0.16 0.973 0.387 1.399 0.68 0.48 0.375 0.867 0.684 1.16 0.922 0.562 0.347 0.973 0.613 1.242 0.801 0.426 0.293 0.746 0.64 0.957 1.039 0.215 0.375 0.414 0.89 0.602 1.558 0.215 0.719 0.375 1.254 0.48 1.602 0.852 3.039 1.36 5.613 1.52 7.719 0 1.492 0.011 2.613 0.039 3.359 0.054 1.281 0.375 2.336 0.961 3.16 0.961 1.414 1.492 2.227 1.601 2.442 0.399 0.8 0.598 1.757 0.598 2.878 0 1.653-0.254 3.321-0.758 5-1.547 0.028-2.68 0.039-3.402 0.039-0.961 0-2.254-0.144-3.879-0.437-1.813-0.293-3.106-0.469-3.879-0.52-4.375-0.32-7.043-0.535-8-0.64-0.883-0.055-1.563-0.11-2.043-0.16-0.824-0.055-1.492-0.176-2-0.36l-0.039-0.281c-0.133-1.281-0.414-3.187-0.84-5.719-0.371 0.426-0.719 1-1.039 1.719-0.348 0.852-0.613 1.481-0.801 1.879-0.215 0.828-0.398 1.508-0.558 2.043-0.293 0.957-0.629 1.504-1 1.641-0.215 0.078-0.442 0.078-0.68 0-0.402-0.161-0.613-0.243-0.641-0.243-0.187-0.027-0.508-0.011-0.961 0.039-0.425 0.055-0.746 0.055-0.961 0-1.039-0.211-1.73-1.132-2.078-2.757-0.105-0.559 0-1.121 0.321-1.68 0.183-0.32 0.519-0.801 1-1.441 0.48-0.829 1.078-2.188 1.8-4.083 0.371-0.851 0.559-1.984 0.559-3.398 0.027-1.574-0.055-3.918-0.242-7.039v-1.121c-0.317 0.508-0.586 1.266-0.797 2.281-0.215 1.172-0.414 1.961-0.602 2.36-0.507 1.121-1 2.652-1.48 4.601l-0.078 0.316c-0.11 1.602-0.309 2.641-0.602 3.122-0.105 0.16-0.691 0.613-1.758 1.359l-0.281 0.199c-0.586 0.453-1.015 0.789-1.281 1-0.504 0.43-0.906 0.817-1.199 1.16-0.16 0.215-0.321 0.535-0.481 0.961-0.187 0.453-0.347 0.774-0.48 0.961-0.481 0.613-0.801 1.039-0.961 1.281-0.238 0.344-0.36 0.707-0.36 1.079l0.043 0.64c-0.617 0.613-0.906 1.387-0.882 2.321 0.027 0.585 0.027 1.011 0 1.281 0 0.48-0.079 0.863-0.239 1.156l-0.281 0.441c-0.746 0.774-1.785 1.442-3.121 2-1.172 0.481-2.359 0.801-3.559 0.961-1.332 0.188-3.347 0.278-6.039 0.278h-0.64c-0.746-0.024-1.321-0.051-1.719-0.078-0.746-0.028-1.336 0-1.762 0.078-0.586 0.109-1.465 0.496-2.64 1.16-1.118 0.59-2.465 0.922-4.039 1h-4.36c-4.801 0-9.414-0.383-13.84-1.16-5.761-1.039-9.105-1.625-10.039-1.758l-2.122-0.359c-2.105-0.321-5.558-0.481-10.359-0.481-0.586-0.375-1.133-0.801-1.641-1.281-0.426-0.399-0.746-0.895-0.961-1.481-0.051-0.078-0.238-0.664-0.558-1.757-0.106-0.293-0.188-0.922-0.243-1.883-0.078-0.879-0.21-1.481-0.398-1.801-0.16-0.238-0.547-0.559-1.16-0.957-0.586-0.426-0.973-0.774-1.16-1.043-0.266-0.371-0.465-0.879-0.602-1.52-0.078-0.371-0.183-0.918-0.32-1.636l-0.156-1.2zm180-8.363c-0.801 1.176-1.266 2.254-1.399 3.242-0.027 0.188-0.015 1.055 0.039 2.598 0.028 1.043-0.16 1.844-0.558 2.402l-2.122 2.598c-0.667 0.828-1.171 1.602-1.519 2.32-0.481 0.989-0.68 1.856-0.602 2.602 0.028 0.641 0.137 1.281 0.321 1.918 0.054 0.187 0.133 0.816 0.242 1.883 0.105 0.8 0.266 1.386 0.48 1.757l0.078 0.083h1.442l1.359-0.04c-0.051-0.187-0.105-0.375-0.16-0.562l1.883 0.441c0.398-0.027 0.797-0.066 1.199-0.121 1.918-0.265 3.774-0.465 5.559-0.597l7.761-0.161 7.559 0.68c0.559 0.078 1.133 0.172 1.719 0.281 0.961 0.161 1.922 0.348 2.883 0.559 2.636 0.559 6.011 0.867 10.117 0.918 2.293 0.027 5.652 0.043 10.082 0.043h0.558c0.375 0 0.735 0.012 1.082 0.039l6.079 0.078h1.359c3.176-0.027 6.043-0.215 8.602-0.558 1.839-0.243 3.625-0.442 5.359-0.602 6.719-0.641 12.879-0.785 18.48-0.438 1.465 0.079 3.614 0.211 6.442 0.399l0.597 0.039c0.082 0.027 0.176 0.039 0.282 0.039 2.879 0.188 5.308 0.297 7.281 0.32h0.719c1.492-0.05 3.586-0.293 6.281-0.718 2.934-0.481 5.254-0.668 6.957-0.559-0.051-0.934-0.133-2.066-0.238-3.402 0-0.985 0.027-2.532 0.082-4.641-0.028-1.84-0.297-3.344-0.801-4.52l-1.32-2.839c-0.907-1.465-1.801-2.145-2.68-2.039-0.453-0.719-0.906-0.852-1.359-0.399-0.348 0.344-0.282 0.824 0.199 1.438 0.613 0.617 0.972 0.988 1.078 1.121l0.16-0.121 0.121 0.64c0 0.133-0.066 0.668-0.199 1.602-0.055 0.508-0.082 1.68-0.082 3.519v4c0.082 0.907 0.121 1.598 0.121 2.078-0.027 0.883-0.227 1.508-0.602 1.883-0.531 0.532-1.464 0.867-2.8 1-1.52 0.028-2.547 0.051-3.078 0.078-0.614 0-1.614-0.078-3-0.238-0.719-0.055-1.641-0.082-2.762-0.082-1.52 0.027-2.453 0.043-2.797 0.043-0.668-0.027-1.508-0.133-2.52-0.32-1.55-0.293-3.015-0.746-4.402-1.36-0.508-0.242-1.187-0.789-2.039-1.64-0.961-0.989-1.469-1.785-1.52-2.403l0.879 0.641c-0.05-0.824 0.121-3.051 0.52-6.68 0.32-2.8 0.176-5-0.438-6.601-0.187-0.504-0.441-1.184-0.761-2.039-0.348-0.614-0.918-1-1.719-1.16-0.293-0.051-0.813 0-1.563 0.16-0.691 0.16-1.132 0.187-1.316 0.082-0.027-0.215 0-1.176 0.078-2.883 0.055-1.332-0.133-2.25-0.558-2.758-0.27-0.32-0.934-0.828-2-1.519-0.188-0.161-0.602-0.493-1.243-1-0.586-0.454-1.027-0.653-1.316-0.602 1.277 1.492 2.117 3.426 2.52 5.801 0.21 1.359 0.316 3.492 0.316 6.398-0.051 1.551-0.09 2.707-0.117 3.481-0.055 1.441-0.016 2.601 0.117 3.48 0.109 0.668 0.586 1.336 1.441 2-0.078 0.16-0.121 0.309-0.121 0.442-0.051 0.242-0.023 0.613 0.082 1.121 0.133 0.613 0.199 1.027 0.199 1.238 0.055 1.094-0.078 1.934-0.398 2.52-0.348 0.718-1 1.281-1.961 1.679-0.531 0.215-1.293 0.348-2.281 0.403-1.067 0.027-1.824 0.066-2.277 0.117-0.883 0.109-2.016 0.148-3.403 0.121-2.051-0.028-3.183-0.039-3.398-0.039-0.934 0-1.735-0.176-2.403-0.52-0.425-0.215-1-0.668-1.718-1.359l1.039-0.52c-0.211-0.402-0.305-0.933-0.278-1.601 0-0.348 0.012-0.879 0.039-1.602-0.082-0.957-0.347-1.879-0.8-2.758-0.133-0.242-0.442-0.812-0.918-1.718-0.481-0.75-0.961-1.028-1.442-0.84-0.054 1.117-0.133 2-0.238 2.637-0.215 1.175-0.668 1.882-1.363 2.121-0.532 0.16-1.426-0.094-2.68-0.758-1.918-1.043-3.492-2.16-4.719-3.363-1.148-1.2-1.949-2.172-2.398-2.918-0.617-1.04-1-2.227-1.16-3.559-0.215-1.629-0.321-3.496-0.321-5.602l-0.039 0.2c-0.402 1.468-0.64 3.586-0.722 6.359v-1.84c-0.078 1.465-0.118 2.598-0.118 3.399-0.027 1.386 0.094 2.48 0.36 3.281 0.16 0.453 0.558 1 1.199 1.64 0.481 0.508 1.066 1.332 1.762 2.481 0.719 1.172 1.277 2 1.679 2.48 1.04 1.2 1.879 1.946 2.52 2.239 0.586 0.242 1.867 0.414 3.84 0.519l1.758 0.199c-0.321 0.11-0.957 0.227-1.918 0.36-0.828 0.109-1.442 0.254-1.84 0.441-0.375 0.16-0.653 0.321-0.84 0.481-0.027 0.027-0.227 0.254-0.602 0.679-0.425 0.481-0.839 0.789-1.238 0.922-0.293 0.078-0.84 0.117-1.64 0.117-6.536-0.183-11.469-0.277-14.801-0.277-1.199 0-2.973-0.055-5.321-0.16-2.375-0.082-4.148-0.121-5.32-0.121-1.094 0.027-3.105-0.227-6.039-0.758h-0.922c-0.344-0.055-0.867-0.187-1.558-0.402l-1.918-0.16 0.039-0.04c-2-0.082-4.028 0.028-6.082 0.321-2.371 0.293-5.161 0.719-8.36 1.281-0.933 0.023-1.679 0.066-2.238 0.117-1.066 0.082-1.723 0.309-1.961 0.68-0.32-1.332-0.426-2.508-0.32-3.52 0.054-0.746 0.281-1.519 0.679-2.316 0.243-0.484 0.629-1.227 1.161-2.242 0.347-0.746 0.546-1.199 0.601-1.36 0.16-0.453 0.238-0.933 0.238-1.441-0.023-2.32-0.039-3.586-0.039-3.801 0.028-1.437 0.149-2.679 0.36-3.719 0-0.027 0.172-0.597 0.519-1.718 0.215-0.719 0.282-1.293 0.199-1.719-0.293 0.156-0.621 0.516-1 1.074h-0.003zm108.76 1.32 0.52-1.039c-0.133-0.558-0.281-1.586-0.442-3.082-0.214-1.359-0.586-2.293-1.121-2.796-0.293-0.293-0.797-0.508-1.519-0.641-0.746-0.133-1.293-0.082-1.641 0.16-0.476 0.266-0.707 0.891-0.68 1.879 0.028 0.719 0.161 1.426 0.403 2.121 0.293 0.984 0.851 1.813 1.679 2.481 0.852 0.691 1.786 1 2.801 0.917zm-244.04 12.723c0.055-0.883-0.453-1.308-1.519-1.281 0-0.586 0.027-1.332 0.082-2.242-0.055-0.719-0.387-1.383-1-2-0.215-0.211-0.586-0.532-1.121-0.957-0.508-0.426-0.879-0.762-1.121-1-0.637-0.668-1.039-1.067-1.2-1.2-0.586-0.453-1.132-0.562-1.64-0.32-0.481 0.238-0.613 0.906-0.399 2 0.16 0.824 0.426 1.57 0.801 2.238 0.879 0.989 1.492 1.707 1.84 2.161 0.613 0.718 0.852 1.558 0.719 2.519-0.481-0.133-2.895-0.32-7.239-0.558-2.882-0.161-5.082-0.973-6.601-2.442-1.067-1.012-1.934-1.918-2.602-2.719-0.211-0.265-0.691-0.773-1.437-1.519-0.641-0.719-1.039-1.293-1.199-1.719-0.243-0.617-0.321-1.601-0.243-2.961 0.028-0.719 0.094-1.707 0.2-2.961-0.504 2.055-0.797 3.227-0.879 3.52-0.293 0.773-0.52 1.386-0.68 1.84-0.238 0.855-0.266 1.507-0.078 1.961 0.293 0.695 1 1.574 2.117 2.64l2.52 2.442c0.746 0.957 1.336 1.691 1.761 2.199 0.774 0.957 1.465 1.57 2.078 1.84 0.321 0.132 0.723 0.199 1.204 0.199h1.277c5.414 0.187 8.883 0.281 10.402 0.281l2.399-0.281c0.961-0.242 1.48-0.801 1.558-1.68z" inkscape:connector-curvature="0"/>
      <path id="path60" style="fill-rule:evenodd;fill:#ced1d6" d="m274.29 80.093 0.199-0.043c1.36-0.344 3.867-0.543 7.52-0.598 0.054-0.773-0.149-1.402-0.602-1.879-0.238-0.269-0.613-0.508-1.117-0.722-0.586-0.239-1.016-0.426-1.281-0.559-0.481-0.242-1.188-0.426-2.121-0.559-1.012-0.16-1.731-0.32-2.157-0.48-1.07-0.402-2.214-0.961-3.441-1.68-0.961-0.562-1.949-0.922-2.961-1.082-0.746-0.133-1.812-0.199-3.199-0.199h-5.68c-2.48-0.105-4.375-0.176-5.68-0.199-2.347-0.082-4.199 0.012-5.562 0.277 0.668 0.27 1.656 0.442 2.961 0.52 1.922 0.109 2.933 0.175 3.039 0.203 0.59 0.078 1.75 0.265 3.48 0.558 1.442 0.266 2.602 0.442 3.481 0.52 0.187 0.027 1.187 0.055 3 0.082 1.226 0.023 2.187 0.172 2.883 0.437 0.453 0.161 1.465 0.68 3.039 1.563 0.801 0.371 1.398 0.664 1.801 0.879 0.718 0.348 1.265 0.719 1.64 1.121 0.426 0.453 0.676 1.066 0.758 1.84zm-0.281 1.797 1.039-0.078-0.918-0.2-0.121 0.278zm-161.6-1.84 0.043 0.043c2.16-0.215 5.371-0.547 9.641-1 0.238-0.028 0.476-0.055 0.718-0.082l8.84-0.68c-4.136-0.48-8.281-0.719-12.441-0.719-1.68-0.132-3.051-0.214-4.117-0.242-1.922-0.051-3.297 0.121-4.121 0.52 0.05 0.297 0.226 0.656 0.519 1.082 0.293 0.453 0.602 0.812 0.918 1.078zm-1.398-38.52c-0.078 0.028-0.145 0.043-0.2 0.043l-0.242 0.039c-1.812 0.266-3.332 0.504-4.558 0.719l-1.68 0.359c-3.441 0.856-6.027 1.469-7.762 1.84-3.039 0.641-5.679 0.934-7.918 0.883-5.33-0.082-10.677-0.387-16.037-0.922-2.027-0.215-5.906-0.812-11.64-1.801l0.961 0.801c0.453-0.027 1.078 0.149 1.878 0.52 2.055 0.828 4.012 1.519 5.879 2.082 0.668 0.183 1.629 0.504 2.879 0.957 1.121 0.348 2.121 0.574 3 0.683 2.055 0.211 3.535 0.493 4.442 0.84 1.226 0.426 3.535 1.383 6.922 2.879 2.878 1.254 5.226 2.149 7.039 2.68 1.039 0.266 2.265 0.387 3.679 0.359 0.586-0.027 1.801-0.133 3.641-0.32 1.332-0.133 3.531-0.254 6.598-0.359 2.8-0.106 4.988-0.266 6.562-0.481-0.055-0.266-0.199-0.465-0.441-0.598-0.321-0.187-0.52-0.32-0.602-0.402-0.426-0.48-0.691-1.027-0.797-1.641-0.187-0.906 0.012-1.972 0.598-3.199 0.426-0.906 0.601-1.828 0.519-2.758-0.105-1.066-0.542-1.91-1.32-2.523-0.398-0.293-0.851-0.52-1.359-0.68h-0.039z" inkscape:connector-curvature="0"/>
      <g id="g62">
        <g id="g64" clip-path="url(#clipPath66)">
          <g id="g70" transform="matrix(.8 0 0 .8 .012083 -51.988)">
            <g id="g92" mask="url(#mask84)">
              <path id="path100" style="fill-rule:evenodd;fill:url(#radialGradient94)" d="m358.61 70.011c0.922-0.176 1.922-0.871 3-2.078 0.481-0.535 0.879-1.414 1.199-2.641 0.188-0.668 0.454-1.613 0.801-2.84 0.641-1.812 1.797-4.176 3.481-7.082 1.89-3.305 3.133-5.613 3.718-6.918 1.442-3.254 1.239-7.133-0.601-11.64-0.508-1.2-0.906-2.641-1.199-4.321-0.028-0.211-0.227-1.691-0.602-4.437-0.078-0.563-0.133-1.774-0.156-3.641-0.027-1.519-0.16-2.707-0.402-3.562-0.825-2.825-3.52-5.641-8.079-8.438-1.519-0.933-3.761-2.402-6.722-4.402-2.664-1.625-5.133-2.692-7.399-3.199-3.949-0.852-8.8-1.305-14.558-1.36-6.59 0.133-11.496 0.199-14.723 0.199h-6.68c-2.558-0.078-4.707-0.347-6.437-0.8-1.922-0.641-3.363-1.012-4.32-1.118-2.082-0.242-4.961 0.266-8.641 1.52-2.719 0.078-4.773 0.117-6.16 0.117-2.375 0-4.387-0.144-6.039-0.437-0.535-0.11-1.282-0.309-2.242-0.602-1.012-0.32-1.758-0.531-2.239-0.641-1.652-0.347-3.883-0.464-6.679-0.359-3.094 0.16-5.336 0.254-6.723 0.281-6.238 0.055-14.227 0.426-23.957 1.121-5.227 0.426-9.203 0.707-11.922 0.84-0.852 0.106-1.785 0.117-2.801 0.039-0.133 0.028-0.426 0.172-0.879 0.442h0.52c-0.535 0.078-1.215 0-2.039-0.242-0.88-0.321-1.53-0.52-1.96-0.602-5.73-1.305-12.35-2.199-19.84-2.68-5.04-0.32-11.73-0.492-20.08-0.519l-11.359 0.043c-1.735-0.028-3.028-0.043-3.879-0.043-1.52-0.028-2.813 0.015-3.879 0.121-2.297 0.187-5.883 0.707-10.762 1.558-4.668 0.801-8.266 1.282-10.801 1.442-2.398 0.16-5.332 0.226-8.8 0.199-3.918-0.051-6.852-0.078-8.797-0.078h-38.723c-6.16 0-10.305 0.09-12.438 0.277-0.347 0.028-1.093 0.028-2.242 0-0.933 0-1.664 0.055-2.199 0.16-1.066 0.243-2.332 0.653-3.801 1.243-1.652 0.718-2.879 1.25-3.679 1.597-3.2 1.469-5.653 2.563-7.36 3.282-3.039 1.253-5.586 2-7.64 2.242-0.239 0.023-1.028 0.011-2.36-0.043-0.906-0.051-1.652 0.054-2.238 0.32-1.227 1.039-2.617 1.84-4.16 2.402-5.762 2.504-11.496 3.879-17.203 4.118-1.067 0-1.946 0.027-2.637 0.082-1.254 0.078-2.121 0.277-2.602 0.597-0.535 0.348-1.054 1.188-1.558 2.52-0.613 1.629-1.028 2.59-1.242 2.883-0.266 0.371-1.067 1.32-2.399 2.84-0.933 1.093-1.613 2.117-2.039 3.078-0.508 1.043-1.121 2.507-1.844 4.402-0.613 1.625-0.73 3.465-0.359 5.52 0.16 0.851 0.68 2.613 1.562 5.277 0.266 0.801 0.481 1.707 0.641 2.723 0.184 1.226 0.317 2.183 0.399 2.878 0.16 1.016 0.359 1.707 0.601 2.082 0.211 0.344 0.504 0.571 0.879 0.68-0.239-0.242-0.372-0.457-0.399-0.64-0.078-0.403 1.027-1.282 3.32-2.641 1.121-0.668 2.109-1.215 2.961-1.641 1.652-0.879 3.254-1.547 4.801-2 1.304-0.398 3.011-0.773 5.121-1.121 0.558-0.078 1.613-0.199 3.16-0.359 1.437-0.16 2.519-0.305 3.238-0.438 0.614-0.109 1.508-0.363 2.68-0.761 1.176-0.426 2.055-0.696 2.641-0.801 0.718-0.16 2.464-0.586 5.238-1.278 0.586-0.136 1.148-0.269 1.68-0.402 1.414-0.32 2.601-0.547 3.562-0.68 4.027-0.586 9.106-0.425 15.238 0.481 3.414 0.508 8.426 1.293 15.039 2.359 5.364 0.535 10.707 0.84 16.043 0.922 2.239 0.051 4.879-0.242 7.918-0.883 1.735-0.371 4.321-0.984 7.762-1.84l1.68-0.359c1.226-0.215 2.746-0.453 4.558-0.719l0.242-0.039c0.747-0.16 1.387-0.308 1.918-0.441 1.336-0.348 3.227-0.895 5.68-1.641 2.586-0.801 4.469-1.359 5.641-1.679 3.469-0.961 7.293-1.508 11.48-1.641 2.375-0.055 6.254 0.051 11.641 0.32 4.398 0.239 11.105 0.707 20.121 1.399 7.172 0.242 12.812 0.375 16.918 0.402 3.574 0.023 5.988-0.016 7.242-0.121 1.84-0.188 3.223-0.305 4.156-0.359 1.524-0.106 2.895-0.133 4.121-0.082 0.774 0.027 1.708 0.082 2.801 0.16 1.465 0.109 3.199 0.242 5.199 0.402 0.774 0.078 1.575 0.16 2.403 0.238 1.679 0.133 3.238 0.215 4.679 0.243h1.438l1.359-0.04c0.59-0.027 1.161-0.066 1.723-0.121 0.398-0.027 0.801-0.066 1.199-0.121 1.918-0.265 3.774-0.465 5.559-0.597l6.519-0.161h1.243l7.558 0.68c0.559 0.082 1.133 0.172 1.719 0.281 0.961 0.161 1.922 0.348 2.883 0.559 2.64 0.559 6.011 0.867 10.117 0.922 2.293 0.023 5.656 0.039 10.082 0.039h0.539c0.395 0 0.762 0.016 1.102 0.039l6.078 0.078h1.359c3.176-0.023 6.043-0.211 8.602-0.558 1.839-0.239 3.625-0.442 5.359-0.602 6.719-0.637 12.879-0.785 18.48-0.438 1.465 0.079 3.614 0.211 6.442 0.399l0.598 0.039c0.082 0.027 0.175 0.043 0.281 0.043 2.879 0.184 5.308 0.293 7.281 0.32h0.719c1.492-0.054 3.586-0.293 6.281-0.722 2.934-0.481 5.254-0.664 6.957-0.559h0.121c2.188 0.105 4.36 0.387 6.52 0.84v0.039c0.132 1.094-0.16 2.187-0.879 3.281-0.028 0.051-0.055 0.094-0.082 0.121-0.371 0.531-0.824 1.051-1.36 1.559-0.214 0.16-0.414 0.32-0.601 0.48-1.84 1.52-3.067 2.68-3.68 3.481-0.027 0.023-0.051 0.066-0.078 0.117-0.16 0.242-0.293 0.496-0.402 0.762-0.348 0.851-0.481 1.961-0.399 3.32 0.082 1.895 1.399 3.586 3.961 5.078 1.227 0.695 3.371 1.586 6.438 2.68 1.414 0.508 3.574 1.215 6.48 2.121 0.055 0.027 0.094 0.039 0.121 0.039 2.613 0.883 4.735 1.762 6.36 2.641h0.039c2.242 1.175 2.668 2.496 1.281 3.961-0.426 0.425-0.918 0.828-1.481 1.199-0.023 0-0.039 0.015-0.039 0.039h0.004z" inkscape:connector-curvature="0"/>
            </g>
          </g>
        </g>
      </g>
    </g>
  </g>
<metadata><rdf:RDF><cc:Work><dc:format>image/svg+xml</dc:format><dc:type rdf:resource="http://purl.org/dc/dcmitype/StillImage"/><cc:license rdf:resource="http://creativecommons.org/licenses/publicdomain/"/><dc:publisher><cc:Agent rdf:about="http://openclipart.org/"><dc:title>Openclipart</dc:title></cc:Agent></dc:publisher></cc:Work><cc:License rdf:about="http://creativecommons.org/licenses/publicdomain/"><cc:permits rdf:resource="http://creativecommons.org/ns#Reproduction"/><cc:permits rdf:resource="http://creativecommons.org/ns#Distribution"/><cc:permits rdf:resource="http://creativecommons.org/ns#DerivativeWorks"/></cc:License></rdf:RDF></metadata></svg>
